<?xml version="1.0" encoding="utf-8"?>
<!-- Generator: Adobe Illustrator 24.1.2, SVG Export Plug-In . SVG Version: 6.00 Build 0)  -->
<svg version="1.1" id="Calque_1" xmlns="http://www.w3.org/2000/svg" xmlns:xlink="http://www.w3.org/1999/xlink" x="0px" y="0px"
	 viewBox="0 0 1005 420" style="enable-background:new 0 0 1005 420;" xml:space="preserve">
<style type="text/css">
	.st0{fill:url(#SVGID_1_);}
	.st1{fill:#20B251;}
	.st2{fill:#FCFAF7;}
	.st3{fill:#FBFAF7;}
	.st4{fill:url(#SVGID_2_);}
	.st5{fill:url(#SVGID_3_);}
	.st6{fill:url(#SVGID_4_);}
	.st7{fill:url(#SVGID_5_);}
	.st8{fill:url(#SVGID_6_);}
	.st9{fill:#FFFFFF;}
	.st10{fill:url(#SVGID_7_);}
	.st11{fill:url(#SVGID_8_);}
	.st12{fill:url(#SVGID_9_);}
</style>
<linearGradient id="SVGID_1_" gradientUnits="userSpaceOnUse" x1="151.5831" y1="173.4965" x2="436.6654" y2="173.4965">
	<stop  offset="5.586592e-03" style="stop-color:#22C55E"/>
	<stop  offset="1" style="stop-color:#20B251"/>
</linearGradient>
<path class="st0" d="M162.8,192.4c5.2-28.9,24.2-44.1,51.3-50.1c17.9-4,35,0.2,50.8,9.4c1.9,1.1,3.6,2.4,5.5,3.4
	c1.3,0.7,2.7,1.5,4.2,0.4c1.6-1.2,0.8-2.6,0.2-4c-4.7-12.9-8.6-26.2-14.2-38.8c-11.5-25.8-31.5-43.2-56.1-55.9
	c-0.1,0-0.3,0.1-0.7,0.3c5.8,5,11.6,9.9,17.2,14.9c12.8,11.5,24.9,23.6,34,38.4c0.6,1,1.2,2,1.7,3.1c2.6,5.2,2.6,5.2-3.3,6.1
	c-24.2,3.8-44.5-3.4-61.3-21.4c-9.4-10-15.6-21.9-20.5-34.5c-3.8-9.7-8-18.9-16.5-25.7c-1.8-1.4-4.4-3.3-3.2-6.2
	c1-2.4,3.8-2.3,6.1-2.4c31.9-2.2,61.1,5,86.1,25.7c10.8,8.9,17,21.1,21.6,34.1c5.5,15.6,11,31.3,18.3,47.2c2-5.9,3.8-11.2,5.5-16.6
	c3.7-11.5,7.7-22.9,11.9-34.3c11.6-31.9,35.7-48.6,67.5-55.7c14.6-3.3,29.5-5.1,44.6-4.4c6,0.3,6.7,1.8,2.9,6.4
	c-9.2,11.2-13.1,24.8-17.9,38.1c-10.3,29.1-30.1,48.8-59.8,58.1c-6.6,2.1-13.5,2.2-20.3,1.3c-6-0.8-6.2-1.2-4.1-6.9
	c6.9-18.8,16.7-35.8,30.7-50.2c6.9-7.1,14.7-13,22.7-19c-2-1.2-3.1,0.3-4.2,0.9c-23.6,10.8-40,28.6-51.1,51.8
	c-8.7,18.2-16.1,36.7-22.1,56c-1.5,4.9-0.8,8.4,3.5,11.1c0.8,0.5,1.5,1.3,2.3,1.9c6,5.3,5.8,5.2,11.3-1c13.8-15.7,29.8-27.8,50.9-32
	c27.7-5.6,54.4,4,68.6,25.6c10.8,16.3,11.7,34.2,7.3,52.7c-1.1,4.8-2.2,9.7-4.4,14.1c-13.1,7.7-22.7,19.1-33.1,29.8
	c-9.4,9.7-19.3,19.2-30.8,26.6c-1,0.6-2,1.2-3.2,1.2c-8.9-3.7-16.1-10-23.6-15.7c-8.7-6.6-8.6-6.9-15.3,1.7c-3.8,4.8-3.7,5.2,1,9.1
	c4.6,3.8,9.2,7.7,13.5,11.9c1.4,1.4,3.6,2.8,2.1,5.5c-3.5,3.3-8.2,4.2-12.6,5.8c-16.1,5.7-32.8,8.4-49.7,10.2c-1,0.1-2,0.1-2.9-0.3
	c-2.7-2.6,0-4.2,1.2-5.9c7.8-10.2,16.5-19.7,24.4-29.8c10.5-13.4,20.9-26.8,31.8-39.8c3.1-3.7,6.3-5.4,11.2-4.6
	c14.4,2.3,27-2.5,36.9-12.4c11.2-11.1,17.4-25,17.6-41.2c0.2-11.2-9.1-20.2-21.2-18.2c-22.5,3.6-37.1,17.6-45.5,38.3
	c-2.7,6.6-2,13.8-1.2,20.8c0.4,3.5-0.4,6.1-2.8,8.6c-11.8,11.9-24.5,23.1-36.5,34.8c-12.6,12.3-25.8,24.1-38.1,36.7
	c-5.3,5.4-11.1,10-17.6,13.9c-15.9,2.5-29.2-4.6-35.7-19.2c-2.9-6.5-5.5-13.2-7.8-20c-9.1-27.7-18.9-55.1-28.2-82.8
	C162.9,197.3,161.2,195,162.8,192.4z"/>
<path class="st1" d="M227.2,341.4c14.5,0,25.8,11.5,25.8,26c0,15.2-12,27.4-27,27.4c-13.9-0.1-25.2-12-25.2-26.7
	C200.8,353,212.4,341.4,227.2,341.4z"/>
<path class="st1" d="M383,367.9c-0.2,14.4-11.9,25.9-26.1,25.8c-13.9-0.1-24.6-11.5-24.3-26c0.2-13.1,12.2-24.2,26.1-24
	C372.6,343.8,383.1,354.3,383,367.9z"/>
<g>
	<path class="st1" d="M362.8,291.6c16.1-10.5,29.4-24.2,42.4-38.2c5.8-6.2,11.7-12.2,19-16.8c1.7-1.1,3.2-2.8,5.6-2.1
		c-8.2,24.3-18.8,47.7-27.6,71.8c-3,8.3-7.7,15.4-14.4,21.1c-3.3,2.8-7,5-11.3,6.1c-46.6,3.9-93.3,0.7-140,1.7
		c-8.6,0.2-17.2,0.5-25.8-0.6c-9.3-3.2-15.3-10.1-20.4-18.1c-8.2-13.1-11.7-28-16.7-42.3c-12.4-35.6-24.6-71.2-37-106.9
		c-4-11.5-10.9-16.4-23.1-16.4c-8,0-16,0.1-24,0c-6.1-0.1-10-3.6-9.9-8.8c0.1-5,3.8-8.2,9.9-8.3c9.5-0.1,19-0.1,28.5,0.1
		c14.7,0.3,28,10.9,33.8,26.8c3.8,10.6,7.4,21.2,11.1,31.8c12.3,35.6,23.6,71.5,37,106.7c5.7,15.1,16.7,22.2,32.7,21.5c1,0,2,0,3,0
		c2.4-1.3,5-1.6,7.6-1.7c8.6-0.1,17.1,0.4,25.7-0.8c1.9-0.3,4-0.2,5.7,1.2c22.9-1.9,45.3-5.9,66.3-15.8
		C347.8,299,355,294.8,362.8,291.6z"/>
	<path class="st1" d="M210.7,334.5c2.9-2,5.7,0.3,8.6,0.3c47.9-0.2,95.8-0.1,143.7-0.1c3.4,0,6.5-0.9,9.8-1.6
		c1.3-0.3,2.6-0.8,3.7,0.4c-9.3,3.4-18.9,2.5-28.5,2.6c-41.2,0.1-82.4,0.1-123.7,0C219.8,336.1,215.1,336.5,210.7,334.5z"/>
</g>
<path class="st2" d="M274.4,319.4c-12.9,1.5-25.9,1.6-38.9,1.3c23.2-18.6,43.2-40.4,65-60.5c8.6-7.9,16.9-16.1,25.4-24.1
	c2.8-2.6,3.8-5,3.1-9.1c-2.4-13.5,1.4-25.7,9.9-36.4c9-11.3,19.8-20.3,34.5-22.9c17.8-3.1,28.7,6.5,26,24.4
	c-2.9,19-11.1,35.6-29.3,44.9c-8.3,4.3-17.2,6.6-26.5,4.5c-4.9-1.1-7.5,1-10.1,4.3c-12,15.1-24.1,30.1-36.1,45.3
	C289.8,300.7,281.2,309.3,274.4,319.4z"/>
<path class="st3" d="M297.3,248.2c-3.2,2.9-5.8,7-9.2,7.8c-3.9,0.9-5.6-4.7-8.7-7c-2.4-1.8-4.7-3.8-7-5.6c-4.8-3.9-9.7-5.3-16.1-2.9
	c-11.7,4.5-22.9,2.3-33.2-4.7c-9.6-6.6-18.8-13.7-27.7-21.2c-2.3-1.9-4.4-4.1-5.7-6.9c-1.3-2.7-1.9-5.5,0.7-7.7
	c2.8-2.4,5.1-0.3,7,1.4c9,7.7,18.2,15.1,27.6,22.2c1.5,1.1,2.9,2.2,4.5,3.1c2.9,1.6,5.9,1.8,8-1.2c2.1-2.8,0.2-5.2-1.8-6.9
	c-7.3-6.1-14.8-11.9-22.2-17.9c-3.8-3-7.8-5.7-11-9.4c-1.3-1.5-2.8-3.1-0.9-5.2c1.8-2.1,3.6-1,5.3,0.2c9.6,6.6,19.1,13.3,28.7,19.9
	c2.2,1.5,4.4,3.1,6.8,4.1c2.5,1.1,5.1,0.3,6.6-2c1.7-2.6-0.3-4.3-2.2-5.8c-9.4-6.9-18.7-13.8-28.1-20.8c-1.6-1.2-3.3-2.3-4.7-3.7
	c-1.4-1.3-3.4-2.7-2.3-5c1-2,3-2.4,5.1-2.6c2.7-0.2,5.3,0.2,7.7,1.6c10.6,6.5,21.7,12.3,31.1,20.7c10.1,8.9,17.5,19.2,16.6,33.5
	c-0.2,2.9,1.4,4.7,3.5,6.2C282.8,237.7,289.8,242.8,297.3,248.2z"/>
<path class="st2" d="M362.8,291.6c-7,4.6-13.9,9.4-22.1,11.9c-5.7-6.5-12.5-11.8-19.1-17.4c-2.6-2.2-3.6-3.7-0.7-6.5
	c3.4-3.3,5.9-9.4,9.7-10.1s7.5,5,11.4,7.7C349,282,355.9,286.8,362.8,291.6z"/>
<g>
	<linearGradient id="SVGID_2_" gradientUnits="userSpaceOnUse" x1="727.7015" y1="294.4692" x2="921.8085" y2="294.4692">
		<stop  offset="5.586592e-03" style="stop-color:#22C55E"/>
		<stop  offset="1" style="stop-color:#20B251"/>
	</linearGradient>
	<path class="st4" d="M890.4,324.8c-6.5,5.5-13.2,9.8-21.7,10.6c-9.7,0.8-15.9-3.2-16.7-13.1c-0.1-1.7-0.9-1.8-2.2-1.7
		c-2.7,0.2-5.3-0.1-7.7-1.3c-1.7-0.9-2.3-0.2-3.1,1.1c-2.5,4.1-5.2,8.1-9,11.3c-2.3,1.9-5,3.2-7.9,3.8c-6.2,1.3-11.2-1.6-12.9-7.7
		c-0.3-1-0.6-2.1-0.9-3.3c-3,3.7-6.2,7-10.4,9c-4.1,1.9-8.4,2.8-12.4-0.3c-4.1-3.2-3.7-7.6-2.8-12c1-5,3.2-9.5,4.9-14.2
		c0.4-1.2,2.3-2.8,0.1-4.1c-2.8-1.5-5.7-0.8-6.9,1.5c-3,5.9-6.6,11.6-11,16.6c-5.7,6.4-12.2,11.5-20.6,13.7
		c-14.1,3.9-22.9-3.3-21.3-17.7c1.2-11.5,7-20.7,16.9-27c1.2-0.8,2.6-1.4,4.1-1.9c4.1-1.4,8.2-1.9,11.6,1.4
		c3.5,3.2,3.4,7.5,2.1,11.5c-3.6,11-11.5,17.5-22.8,19.5c-2.8,0.5-2.6,1.4-1.9,3.2c1.2,3.5,4.1,5,8.3,4.1
		c9.6-2.3,16.2-8.6,21.7-16.4c2.1-2.9,3.7-6,5.2-9.3c1-2.3,1.9-4.3,0-6.9c-1.7-2.3-0.8-5.1,0.9-7.3c1.8-2.3,4.1-3.8,7.1-3.2
		c2.8,0.5,3.8,2.6,3.5,5.1c-0.5,3.1,1,3.8,3.6,3.9c1.6,0.1,3.2,0.4,4.8,0.6c5.9,0.6,7.6,3.2,5.6,8.8c-1.7,4.8-3.6,9.6-5.4,14.4
		c-0.5,1.4-0.8,2.8-1.3,4.3c-0.5,1.4-0.6,2.7,0.7,3.7s2.7,0.6,3.9-0.2c6.6-4.3,11.9-9.8,13.4-17.9c2.8-14.7,6.8-28.9,14.4-41.9
		c2.2-3.8,4.6-7.4,8.1-10.1c2.9-2.1,6-3,9.3-1.4c3.2,1.6,4.1,4.6,4.3,8.1c0.2,5-1.3,9.5-3.2,13.9c-5.5,13.3-13.4,25.1-22.6,35.9
		c-3.2,3.9-3.2,7.7-1.8,11.8c1,3.2,3.7,4,6.6,2.2c5.1-3.2,7.6-8.4,10.1-13.6c0.5-1-0.3-1.7-0.6-2.6c-1.1-4.6-0.8-9.1,1.4-13.3
		c1.4-2.6,3.6-4.3,6.8-3.5c3,0.8,3.8,3.2,3.9,6.1c0.1,2.7-0.3,5.2-1.3,7.7c-0.5,1.2-1.7,2.8,0.2,3.9c1.7,1,3.3,1.9,5.5,1
		c2.1-1,2.9-2.8,3.7-4.8c2.7-6.8,7-12.3,13.1-16.4c2.5-1.7,5.2-2.9,8.2-3.3c7.9-1,12.8,4.2,11,12.1c-2.3,10.1-12.9,20-23.4,21.1
		c-2.3,0.3-2.2,1.2-1.9,2.8c0.7,3.5,3.9,5.4,7.9,4.6c5.3-1,9.9-3.5,14-7c10.2-8.4,17.3-19.3,22.8-31.1c0.8-1.5,1.4-3.2,2.4-4.5
		c1.6-2,3.9-2.4,6.2-1.4s2.4,3,1.8,5c-1.5,4.4-0.4,8.6,1,12.7c2.1,6,4.6,11.9,3.9,18.6c-0.8,7.7-6.9,13.9-15,15
		C899.3,336.3,893.3,332.5,890.4,324.8z"/>
	<linearGradient id="SVGID_3_" gradientUnits="userSpaceOnUse" x1="491.8771" y1="309.6678" x2="635.8719" y2="309.6678">
		<stop  offset="5.586592e-03" style="stop-color:#22C55E"/>
		<stop  offset="1" style="stop-color:#20B251"/>
	</linearGradient>
	<path class="st5" d="M533.4,303.3c3.2-3.7,5.7-6.8,8.7-9.4c3.9-3.2,8.2-4.8,13.3-3.8c3.5,0.7,5,2.8,5.2,6.2
		c0.4,5.6-1.9,10.5-3.8,15.5c-1.3,3.4-3,6.6-3.9,10.2c-0.3,1.4-0.9,2.8,0.6,3.7c1.3,0.9,2.8,0.3,3.9-0.5c4.8-3.5,9-7.4,10.7-13.4
		c2.2-8.2,6.7-15,13.4-20.2c3.1-2.4,6.6-4.1,10.6-4.6c7.4-0.8,12.1,4.6,10.4,11.8c-2.5,10.6-13.4,20.4-24.2,21.7
		c-1.9,0.2-2,1-1.7,2.4c0.8,3.7,3.9,5.7,7.8,4.9c5.5-1.1,10-3.9,14-7.6c9.7-8.9,16.9-19.5,22.4-31.4c1.3-2.8,2.7-5.3,6.5-5
		c2.8,0.2,4.3,1.7,3.6,4.2c-1.7,6.1,0.6,11.5,2.4,17c2,5.8,3.6,11.6,1.8,17.8c-2.7,9.3-11.8,14.7-20.4,12.2
		c-4.2-1.2-7.2-4.3-10.2-10.6c-5,4.3-10.1,8.5-16.8,10.1c-3.7,1-7.5,1.1-11.3,0.3c-5.3-1.2-7.9-5-9.3-10.3c-2.1,2.1-4.2,4.3-6.4,6.3
		c-1.1,1-2.3,1.9-3.7,2.6c-3.7,1.9-7.5,2.6-11,0.1c-3.4-2.3-3.5-5.9-3-9.6c0.6-5,2.7-9.5,4.3-14c0.8-2.3,1.7-4.5,2.5-6.8
		c0.3-1,0.6-2.1-0.3-2.9c-1-0.8-2.1-0.6-3.2,0c-3.2,1.5-5.5,4.2-7.6,6.8c-5.5,6.8-9.3,14.7-12.7,22.7c-0.9,2-1.8,4-4.1,4.8
		c-1.7,0.6-3.4,0.6-4.9-0.5s-1.4-2.7-0.9-4.3c0.3-0.8,0.3-1.7,0.6-2.9c-3.4,3.3-6.8,6.4-11.4,7.5c-8.1,2.1-13.7-1.9-13.4-10.1
		c0.4-11.3,4.7-21.5,9.6-31.5c0.5-1,1.4-1.9,2.3-2.5c1.9-1.2,4.1-1.2,5.9,0.1c1.9,1.3,1.2,3.2,0.6,5c-2.2,6.1-4.5,12.2-6.6,18.4
		c-0.7,2.1-1,4.2-1.6,6.4c-0.5,1.9-0.2,3.8,1.4,5c1.7,1.3,3.6,0.7,5.2-0.3c6.1-4,10.5-9.5,13-16.4c1.7-4.3,2.8-8.9,4.2-13.4
		c0.3-1.1,0.8-2.2,1.4-3.1c1.7-2.2,3.9-2.9,6.4-1.9c2.6,1,2.1,3.2,1.5,5.3C535,297.8,534.3,300.1,533.4,303.3z"/>
	<linearGradient id="SVGID_4_" gradientUnits="userSpaceOnUse" x1="662.6369" y1="298.2556" x2="728.7638" y2="298.2556">
		<stop  offset="5.586592e-03" style="stop-color:#22C55E"/>
		<stop  offset="1" style="stop-color:#20B251"/>
	</linearGradient>
	<path class="st6" d="M670.8,302.6c-1.2,0-2.3,0-3.3,0c-1.9,0-3.9,0-4.6-2.1c-0.7-2.2,0.1-4.3,1.9-5.9c1.9-1.7,4.2-1.9,6.4-1.9
		c2.1,0,2.9-1,3.5-2.9c2.6-8.3,5.2-16.6,8.9-24.4c1.2-2.6,2.7-4.4,5.9-4.2c4.8,0.3,7,3.2,4.9,7.5c-3.7,7.5-6.4,15.3-8.8,23.5
		c7.2,0,14.1-0.1,21,0.1c2.1,0.1,2.1-1.4,2.5-2.6c2.3-7.7,4.6-15.3,7.8-22.6c1-2.1,1.8-4.5,4.1-5.8c2.2-1.2,4.5-1.2,6.5,0.3
		c1.9,1.4,1.3,3.5,0.6,5.3c-2.9,8.3-5.8,16.6-8.7,24.9c1.2,0.8,2.4,0.3,3.5,0.3c3,0,3.9,1.6,2.3,4.1c-1.2,2.1-3.2,3.2-5.5,3.8
		c-1.8,0.4-2.8,1.2-3.2,3.3c-1.3,6.4-3,12.7-3.1,19.3c-0.1,4.3,0.8,5,5,4.3c0.8-0.1,1.7-0.3,2.2,0.5c0.6,0.7,0.3,1.5,0.1,2.3
		c-1.5,3.9-7.7,6.5-13.1,5.5c-3.7-0.7-5.9-3.9-6.1-8.4c-0.3-7.8,2.1-15.2,3.8-22.6c0.6-2.6-0.1-2.8-2.3-2.8
		c-5.9,0.1-11.7,0.3-17.6,0.1c-2.6-0.1-3.2,1-3.9,3.1c-2.6,8.7-4.8,17.4-6.8,26.2c-0.6,2.6-1.5,5.1-4.9,5.3
		c-4.8,0.3-6.8-1.9-5.9-6.7C665.4,320.2,668.3,311.6,670.8,302.6z"/>
	<linearGradient id="SVGID_5_" gradientUnits="userSpaceOnUse" x1="447.4159" y1="296.5434" x2="511.0024" y2="296.5434">
		<stop  offset="5.586592e-03" style="stop-color:#22C55E"/>
		<stop  offset="1" style="stop-color:#20B251"/>
	</linearGradient>
	<path class="st7" d="M465.3,272.1c-2.7,1-4.9,1.9-7.2,2.7c-1.3,0.5-2.7,0.8-3.8-0.5c-1.2-1.3-0.6-2.6,0.1-3.9
		c2.7-4.7,7-7.1,11.9-8.6c9.3-3,19.1-2.8,28.6-3.4c3.3-0.2,6.6-0.1,10-0.6c3.7-0.4,5.9,1.2,6.1,4.4c0.2,3.2-1.8,5.6-5.2,5.9
		c-8.9,1-17.9,0-26.9,1.2c-1.3,0.2-2.3,0.2-2.8,1.8c-2.3,7.9-4.8,15.7-7.2,23.7c5.5-0.3,10.8-0.5,16-0.7c2.6-0.1,5.3-0.4,5.4,3.5
		c0.1,3.6-2.3,6.2-5.8,6.3c-5.2,0.1-10.4,0.1-15.5,0.1c-2.3-0.1-3.4,0.8-4,3c-1.9,7.9-4.1,15.7-6.3,23.5c-1.1,3.9-3.2,5.3-6.7,4.8
		c-3.9-0.6-5.2-2.8-4.3-7c1.9-7.9,4.8-15.5,7.2-23.2c-0.6-0.9-1.4-0.3-2.2-0.6c-2.7-0.6-3.5-2.5-2.1-4.8c1.1-1.9,3-3.1,5-3.3
		c2.1-0.2,2.6-1.2,3-3C460.8,286.6,463,279.7,465.3,272.1z"/>
	<linearGradient id="SVGID_6_" gradientUnits="userSpaceOnUse" x1="507.4847" y1="277.073" x2="519.5966" y2="277.073">
		<stop  offset="5.586592e-03" style="stop-color:#22C55E"/>
		<stop  offset="1" style="stop-color:#20B251"/>
	</linearGradient>
	<path class="st8" d="M512.3,282.7c-3.1,0-4.9-1.7-4.8-4.4c0.1-3.3,3.7-6.7,7.3-6.8c2.8-0.1,4.8,1.7,4.8,4.1
		C519.8,279.3,516.2,282.7,512.3,282.7z"/>
	<path class="st9" d="M908.7,301.7c1.2,4.8,2.3,9,3.5,13.3c0.5,1.7,0.6,3.4,0.4,5.1c-0.3,3.5-1.9,6.4-5.5,7.6
		c-3.3,1.2-5.3-1-7.4-3.1c-1.2-1.3-2-3.1-3.6-4.1s-0.1-1.5,0.3-2.1c2.1-2.8,4.3-5.4,6.4-8.1C904.8,307.6,906.6,304.8,908.7,301.7z"
		/>
	<path class="st9" d="M862.2,313.1c2.6-6,5.2-11.2,9.6-15.4c1.7-1.6,3.7-3.1,5.7-1.5c1.8,1.4,1,3.8,0.1,5.7
		c-2.3,5.2-6.9,7.7-11.9,9.8C864.8,312.2,863.7,312.5,862.2,313.1z"/>
	<path class="st9" d="M738,313c2.5-5.7,4.9-10.9,9.1-14.9c0.8-0.8,1.7-1.5,2.8-2.1c1.2-0.6,2.5-0.8,3.6,0.1s1.2,2.1,0.9,3.5
		c-0.7,2.9-2.4,5.2-4.6,7.1C746.4,309.7,742.4,311.3,738,313z"/>
	<path class="st9" d="M822.7,296.3c2.8-10.8,5.9-21.3,12-30.7c0.6-0.8,1-2.2,2.1-1.7c1.2,0.5,0.5,1.8,0.3,2.8
		c-2.1,8.8-6.5,16.5-11,24.2C825,292.7,823.8,294.5,822.7,296.3z"/>
	<path class="st9" d="M610.3,318.3c4.7-5.3,8.6-11,12.6-17.1c1.3,4.8,2.6,9,3.7,13.4c0.8,3,0.7,6.1-0.8,9c-2.6,5-7.8,5.2-10.8,0.6
		C613.6,322,612.5,319.8,610.3,318.3z"/>
	<path class="st9" d="M577.4,313.2c2.5-6.3,5.5-11.5,10.1-15.7c1.6-1.4,3.5-2.9,5.5-1.4c1.9,1.5,1,3.8,0,5.7
		C589.8,308,584.1,310.9,577.4,313.2z"/>
</g>
<g>
	<linearGradient id="SVGID_7_" gradientUnits="userSpaceOnUse" x1="496.8141" y1="171.6672" x2="670.2321" y2="171.6672">
		<stop  offset="5.586592e-03" style="stop-color:#22C55E"/>
		<stop  offset="1" style="stop-color:#20B251"/>
	</linearGradient>
	<path class="st10" d="M650,180.7c4.7-0.7,8.7-1.2,12.4-3.5c2.1-1.3,4.2-1.8,6,0c1.7,1.6,2.2,3.7,1.6,6.1c-1,3.4-3.1,5.9-6.1,7.4
		c-1.9,1-4.1,1.7-6,2.7c-4,2-10.3,0.7-12.1,4.1c-2.8,5.5-3.5,12.2-4,18.7c-0.6,7.8,1.1,13.6,9.5,16.4c3.9,1.3,4.1,5.4,0.4,7.5
		c-6.8,4-14.2,3.9-21.3,1.1c-6.5-2.5-10.2-7.6-11-14.6c-1-9,0.2-17.7,2.8-26.1c1.1-3.8,0.8-5-3.5-5.2c-10.6-0.6-21.4-1.3-31.9-2.7
		c-3.7-0.4-5.2,0.7-7,3.5c-7.3,12-14.7,23.9-25,33.5c-8.2,7.6-17.2,14-28.9,14.5c-20.5,1-33.8-16.4-27.5-36
		c5.9-18.4,19.9-27.5,37.8-31.8c9.4-2.3,18.9-2.7,28.6-2.9c3.7-0.1,5.5-1.3,7.3-4.3c11.5-19,23.1-38,37.9-54.9
		c6.5-7.5,14.2-13.6,24.5-14.7s19.7,1.3,27.9,7.9c5.8,4.7,7.6,10.6,5.3,17.8C661.8,143.5,656,161.8,650,180.7z"/>
	<linearGradient id="SVGID_8_" gradientUnits="userSpaceOnUse" x1="679.9767" y1="169.9088" x2="739.2208" y2="169.9088">
		<stop  offset="5.586592e-03" style="stop-color:#22C55E"/>
		<stop  offset="1" style="stop-color:#20B251"/>
	</linearGradient>
	<path class="st11" d="M680,229.7c1.6-11.6,4.9-22.9,8.2-34.2c8.3-29.1,18.4-57.6,29.8-85.6c2.2-5.3,5.1-9.9,11.7-10.1
		c8-0.2,11.2,3.8,8.7,11.5c-5.6,17.6-11.4,35.1-17.3,52.7c-7.2,21.7-13.5,43.7-18.6,66.1c-1.9,8.3-7.3,11.5-15.6,9.3
		C682.1,238.2,679.8,234.9,680,229.7z"/>
	<path class="st9" d="M592.8,174.2c9.5-15.5,18.2-30.4,29.5-43.5c3.5-4,7.2-7.8,12.5-9.7c2.8-1,5.4-1.4,7.8,0.6
		c2.5,2.1,1.9,5.2,1.1,7.8c-2.1,7.5-4.7,15.1-7.1,22.5c-2.7,8.2-5.2,16.4-7.9,24.6c-0.4,1.2,0,3.2-2.5,2.5
		C615.5,176.2,604.3,176.2,592.8,174.2z"/>
	<path class="st9" d="M555.1,195.9c-6.1,10.2-11.4,19.6-19.4,27.1c-2.9,2.7-5.9,5.1-9.5,6.4c-3.5,1.3-7.2,2.1-10.4-0.8
		c-3.2-2.9-4.5-6.5-3.7-11c2.1-10.2,9.4-15.4,18.6-18.4C538.3,196.9,546.3,196.8,555.1,195.9z"/>
	<linearGradient id="SVGID_9_" gradientUnits="userSpaceOnUse" x1="795.7809" y1="169.8778" x2="880.2886" y2="169.8778">
		<stop  offset="5.586592e-03" style="stop-color:#22C55E"/>
		<stop  offset="1" style="stop-color:#20B251"/>
	</linearGradient>
	<path class="st12" d="M849,199.4c1.9-2.1,3.1-4.2,3.9-6.2c0.7-2,1.3-4,1.8-6c2.1-7.8,6.5-13.8,13.3-18.5c1.6-0.3,2.8,0.1,3.5,1.2
		c0.8,1.1,1.7,2,2.7,2.7c2,1.6,3.1,3.2,3.4,4.9c0.3,1.7,0,3.7-0.9,5.9c-1.6,4.5-3.2,9.1-5,13.5s-3.9,8.7-6.4,12.8
		c-1.1,2-1.7,3.3-1.4,4.1c0.2,0.7,1.2,1.9,3.1,3.4c2.4,2,4.9,4,7.2,6s4.4,4.3,6.1,6.9c-0.1,0.4-0.2,0.8-0.1,1.2c0.1,0.3,0,0.7-0.3,1
		c-2.4,2.8-4.3,4.8-5.5,6.1c-1.3,1.3-2.4,2.1-3.5,2.1c-1.1,0.1-2.3-0.4-3.7-1.7c-1.3-1.1-3.3-2.8-5.9-5c-2.9-2.8-6-5.3-9.2-8
		c-1.8,1.3-3.3,2.5-4.8,3.7s-2.9,2.3-4.5,3.4c-4.9,3.5-10.4,5.5-16.5,6c-3.3,0.3-6.4,0-9.3-1c-2.9-0.9-5.6-2.5-8.1-4.9
		c-1-0.9-1.9-1.8-2.8-2.7c-0.9-0.9-1.8-1.8-2.8-2.7c-4.3-4-6.8-8.3-7.3-13c-0.6-4.7,0.1-9.5,2.1-14.5c2.3-5.9,5.6-11.2,10.1-16.1
		c1.6-1.9,2.5-3.7,2.9-5.4c0.3-1.8,0-3.9-1.2-6.3c-2.3-4.8-4-9.6-5-14.6s-1.7-10.2-1.9-15.5c-0.1-11.6,3.8-21.3,11.6-29.2
		c2.9-2.8,5.8-5.2,8.6-7.6c2.9-2.3,6.3-4.1,10.3-5.2c8.9-2.1,16.5-0.6,22.9,5c1.4,1.1,2.8,2.4,4.1,3.8s2.5,2.7,3.9,4
		c4,3.8,6.2,7.8,6.6,12.1c0.4,4.3-0.2,8.7-1.9,13.5c-1.9,5.2-4.8,9.9-8.6,14.2c-3,3.3-6.1,6.5-9.1,9.6c-3.1,3.1-6.2,6.3-9.3,9.6
		c-0.9,1-1.8,1.9-2.7,2.8c-0.9,0.9-1.9,1.8-2.9,2.5c-1.8,1.8-1.9,3.8-0.4,6c1.9,2.9,3.8,5.6,5.8,8.3
		C843.9,194.5,846.2,197,849,199.4z M822,195.6c-2.3,2.8-3.9,5.6-4.7,8.6c-0.8,3.1-1,6.3-0.8,9.7c0.3,1.9,1.3,3.1,3.2,3.9
		c1.9,0.7,3.7,1,5.4,1c1.8-0.1,3.5-0.4,5.2-1c1.6-0.4,3.1-0.9,4.7-1.4c1.6-0.6,2.8-1.7,3.8-3.5c-2.4-2.9-4.9-5.6-7.4-8.4
		c-2.5-2.8-5-5.4-7.4-8.2C823.8,196.1,823.1,195.8,822,195.6z M823.7,141.9c-0.3,2.9-0.1,5.9,0.6,8.9c0.7,3.1,1.3,6.1,2,9.1
		c0.3,1,0.8,1.6,1.6,1.8c0.7,0.1,1.4,0,2.1-0.4c3.9-2.9,7.4-6.1,10.5-9.6s5.8-7.5,7.8-12.1c1.4-2.9,2.4-5.8,3-8.7
		c0.6-3-0.1-5.8-2.1-8.2c-1-1.1-2.2-1.9-3.5-2.3s-2.8-0.6-4.2-0.6c-1.4,0.1-2.9,0.3-4.5,0.7c-1.6,0.3-3.1,0.8-4.5,1.2
		c-3.1,0.9-5.2,2.8-6.2,5.8c-0.9,2.3-1.6,4.7-2,7C823.4,136.7,823.4,139.2,823.7,141.9z"/>
</g>
<path class="st1" d="M358.6,334.7l10-0.7C368.6,334,366.7,335.4,358.6,334.7z"/>
</svg>
