<?xml version="1.0" encoding="utf-8"?>
<!-- Generator: Adobe Illustrator 24.1.2, SVG Export Plug-In . SVG Version: 6.00 Build 0)  -->
<svg version="1.1" id="Calque_1" xmlns="http://www.w3.org/2000/svg" xmlns:xlink="http://www.w3.org/1999/xlink" x="0px" y="0px"
	 viewBox="0 0 1513 284" style="enable-background:new 0 0 1513 284;" xml:space="preserve">
<style type="text/css">
	.st0{fill:url(#SVGID_1_);}
	.st1{fill:#20B251;}
	.st2{fill:#FCFAF7;}
	.st3{fill:#FBFAF7;}
	.st4{fill:#FFFFFF;}
	.st5{fill:#0F172A;}
</style>
<g>
	
		<linearGradient id="SVGID_1_" gradientUnits="userSpaceOnUse" x1="61.815" y1="182.3855" x2="272.3142" y2="182.3855" gradientTransform="matrix(1 0 0 -1 0 298)">
		<stop  offset="5.586592e-03" style="stop-color:#22C55E"/>
		<stop  offset="1" style="stop-color:#20B251"/>
	</linearGradient>
	<path class="st0" d="M70.1,129.6C73.9,108.2,88,97,108,92.6c13.2-3,25.8,0.1,37.5,6.9c1.4,0.8,2.7,1.8,4.1,2.5c1,0.5,2,1.1,3.1,0.3
		c1.2-0.9,0.6-1.9,0.1-3c-3.5-9.5-6.4-19.3-10.5-28.6c-8.5-19.1-23.3-31.9-41.4-41.3c-0.1,0-0.2,0.1-0.5,0.2
		c4.3,3.7,8.6,7.3,12.7,11c9.5,8.5,18.4,17.4,25.1,28.4c0.4,0.7,0.9,1.5,1.3,2.3c1.9,3.8,1.9,3.8-2.4,4.5
		c-17.9,2.8-32.9-2.5-45.3-15.8c-6.9-7.4-11.5-16.2-15.1-25.5c-2.8-7.2-5.9-14-12.2-19c-1.3-1-3.2-2.4-2.4-4.6
		c0.7-1.8,2.8-1.7,4.5-1.8c23.6-1.6,45.1,3.7,63.6,19c8,6.6,12.6,15.6,15.9,25.2c4.1,11.5,8.1,23.1,13.5,34.9
		c1.5-4.4,2.8-8.3,4.1-12.3c2.7-8.5,5.7-16.9,8.8-25.3c8.6-23.6,26.4-35.9,49.8-41.1c10.8-2.4,21.8-3.8,32.9-3.2
		c4.4,0.2,4.9,1.3,2.1,4.7c-6.8,8.3-9.7,18.3-13.2,28.1c-7.6,21.5-22.2,36-44.2,42.9c-4.9,1.6-10,1.6-15,1c-4.4-0.6-4.6-0.9-3-5.1
		c5.1-13.9,12.3-26.4,22.7-37.1c5.1-5.2,10.9-9.6,16.8-14c-1.5-0.9-2.3,0.2-3.1,0.7c-17.4,8-29.5,21.1-37.7,38.2
		c-6.4,13.4-11.9,27.1-16.3,41.3c-1.1,3.6-0.6,6.2,2.6,8.2c0.6,0.4,1.1,1,1.7,1.4c4.4,3.9,4.3,3.8,8.3-0.7
		c10.2-11.6,22-20.5,37.6-23.6c20.5-4.1,40.2,3,50.7,18.9c8,12,8.6,25.3,5.4,38.9c-0.8,3.5-1.6,7.2-3.2,10.4
		c-9.7,5.7-16.8,14.1-24.4,22c-6.9,7.2-14.3,14.2-22.7,19.6c-0.7,0.4-1.5,0.9-2.4,0.9c-6.6-2.7-11.9-7.4-17.4-11.6
		c-6.4-4.9-6.4-5.1-11.3,1.3c-2.8,3.5-2.7,3.8,0.7,6.7c3.4,2.8,6.8,5.7,10,8.8c1,1,2.7,2.1,1.6,4.1c-2.6,2.4-6.1,3.1-9.3,4.3
		c-11.9,4.2-24.2,6.2-36.7,7.5c-0.7,0.1-1.5,0.1-2.1-0.2c-2-1.9,0-3.1,0.9-4.4c5.8-7.5,12.2-14.5,18-22c7.8-9.9,15.4-19.8,23.5-29.4
		c2.3-2.7,4.7-4,8.3-3.4c10.6,1.7,19.9-1.8,27.2-9.2c8.3-8.2,12.8-18.5,13-30.4c0.1-8.3-6.7-14.9-15.7-13.4
		c-16.6,2.7-27.4,13-33.6,28.3c-2,4.9-1.5,10.2-0.9,15.4c0.3,2.6-0.3,4.5-2.1,6.4c-8.7,8.8-18.1,17.1-27,25.7
		c-9.3,9.1-19.1,17.8-28.1,27.1c-3.9,4-8.2,7.4-13,10.3c-11.7,1.8-21.6-3.4-26.4-14.2c-2.1-4.8-4.1-9.7-5.8-14.8
		c-6.7-20.5-14-40.7-20.8-61.1C70.2,133.2,68.9,131.5,70.1,129.6z"/>
	<path class="st1" d="M117.6,239.6c10.7,0,19.1,8.5,19.1,19.2c0,11.2-8.9,20.2-19.9,20.2c-10.3-0.1-18.6-8.9-18.6-19.7
		C98.1,248.1,106.7,239.6,117.6,239.6z"/>
	<path class="st1" d="M232.7,259.1c-0.1,10.6-8.8,19.1-19.3,19.1c-10.3-0.1-18.2-8.5-17.9-19.2c0.1-9.7,9-17.9,19.3-17.7
		C225,241.3,232.8,249.1,232.7,259.1z"/>
	<g>
		<path class="st1" d="M217.8,202.8c11.9-7.8,21.7-17.9,31.3-28.2c4.3-4.6,8.6-9,14-12.4c1.3-0.8,2.4-2.1,4.1-1.6
			c-6.1,17.9-13.9,35.2-20.4,53c-2.2,6.1-5.7,11.4-10.6,15.6c-2.4,2.1-5.2,3.7-8.3,4.5c-34.4,2.9-68.9,0.5-103.4,1.3
			c-6.4,0.1-12.7,0.4-19.1-0.4c-6.9-2.4-11.3-7.5-15.1-13.4c-6.1-9.7-8.6-20.7-12.3-31.2c-9.2-26.3-18.2-52.6-27.3-78.9
			c-3-8.5-8-12.1-17.1-12.1c-5.9,0-11.8,0.1-17.7,0c-4.5-0.1-7.4-2.7-7.3-6.5c0.1-3.7,2.8-6.1,7.3-6.1c7-0.1,14-0.1,21,0.1
			c10.9,0.2,20.7,8,25,19.8c2.8,7.8,5.5,15.7,8.2,23.5c9.1,26.3,17.4,52.8,27.3,78.8c4.2,11.1,12.3,16.4,24.1,15.9
			c0.7,0,1.5,0,2.2,0c1.8-1,3.7-1.2,5.6-1.3c6.4-0.1,12.6,0.3,19-0.6c1.4-0.2,3-0.1,4.2,0.9c16.9-1.4,33.4-4.4,49-11.7
			C206.7,208.3,212,205.2,217.8,202.8z"/>
		<path class="st1" d="M105.5,234.5c2.1-1.5,4.2,0.2,6.4,0.2c35.4-0.1,70.7-0.1,106.1-0.1c2.5,0,4.8-0.7,7.2-1.2
			c1-0.2,1.9-0.6,2.7,0.3c-6.9,2.5-14,1.8-21,1.9c-30.4,0.1-60.8,0.1-91.3,0C112.2,235.7,108.7,236,105.5,234.5z"/>
	</g>
	<path class="st2" d="M152.5,223.3c-9.5,1.1-19.1,1.2-28.7,1c17.1-13.7,31.9-29.8,48-44.7c6.4-5.8,12.5-11.9,18.8-17.8
		c2.1-1.9,2.8-3.7,2.3-6.7c-1.8-10,1-19,7.3-26.9c6.6-8.3,14.6-15,25.5-16.9c13.1-2.3,21.2,4.8,19.2,18c-2.1,14-8.2,26.3-21.6,33.2
		c-6.1,3.2-12.7,4.9-19.6,3.3c-3.6-0.8-5.5,0.7-7.5,3.2c-8.9,11.1-17.8,22.2-26.7,33.4C163.9,209.5,157.5,215.9,152.5,223.3z"/>
	<path class="st3" d="M169.4,170.8c-2.4,2.1-4.3,5.2-6.8,5.8c-2.9,0.7-4.1-3.5-6.4-5.2c-1.8-1.3-3.5-2.8-5.2-4.1
		c-3.5-2.9-7.2-3.9-11.9-2.1c-8.6,3.3-16.9,1.7-24.5-3.5c-7.1-4.9-13.9-10.1-20.5-15.7c-1.7-1.4-3.2-3-4.2-5.1c-1-2-1.4-4.1,0.5-5.7
		c2.1-1.8,3.8-0.2,5.2,1c6.6,5.7,13.4,11.1,20.4,16.4c1.1,0.8,2.1,1.6,3.3,2.3c2.1,1.2,4.4,1.3,5.9-0.9c1.6-2.1,0.1-3.8-1.3-5.1
		c-5.4-4.5-10.9-8.8-16.4-13.2c-2.8-2.2-5.8-4.2-8.1-6.9c-1-1.1-2.1-2.3-0.7-3.8c1.3-1.6,2.7-0.7,3.9,0.1
		c7.1,4.9,14.1,9.8,21.2,14.7c1.6,1.1,3.2,2.3,5,3c1.8,0.8,3.8,0.2,4.9-1.5c1.3-1.9-0.2-3.2-1.6-4.3c-6.9-5.1-13.8-10.2-20.7-15.4
		c-1.2-0.9-2.4-1.7-3.5-2.7c-1-1-2.5-2-1.7-3.7c0.7-1.5,2.2-1.8,3.8-1.9c2-0.1,3.9,0.1,5.7,1.2c7.8,4.8,16,9.1,23,15.3
		c7.5,6.6,12.9,14.2,12.3,24.7c-0.1,2.1,1,3.5,2.6,4.6C158.7,163,163.9,166.8,169.4,170.8z"/>
	<path class="st2" d="M217.8,202.8c-5.2,3.4-10.3,6.9-16.3,8.8c-4.2-4.8-9.2-8.7-14.1-12.8c-1.9-1.6-2.7-2.7-0.5-4.8
		c2.5-2.4,4.4-6.9,7.2-7.5s5.5,3.7,8.4,5.7C207.6,195.7,212.7,199.3,217.8,202.8z"/>
	<g>
		<path class="st4" d="M1449.7,231.2c-10.8,9.2-22,16.3-36.1,17.7c-16.2,1.3-26.5-5.3-27.8-21.8c-0.2-2.8-1.5-3-3.7-2.8
			c-4.5,0.3-8.8-0.2-12.8-2.2c-2.8-1.5-3.8-0.3-5.2,1.8c-4.2,6.8-8.7,13.5-15,18.8c-3.8,3.2-8.3,5.3-13.2,6.3
			c-10.3,2.2-18.7-2.7-21.5-12.8c-0.5-1.7-1-3.5-1.5-5.5c-5,6.2-10.3,11.7-17.3,15c-6.8,3.2-14,4.7-20.7-0.5
			c-6.8-5.3-6.2-12.7-4.7-20c1.7-8.3,5.3-15.8,8.2-23.6c0.7-2,3.8-4.7,0.2-6.8c-4.7-2.5-9.5-1.3-11.5,2.5c-5,9.8-11,19.3-18.3,27.6
			c-9.5,10.7-20.3,19.2-34.3,22.8c-23.5,6.5-38.1-5.5-35.5-29.5c2-19.2,11.7-34.5,28.1-45c2-1.3,4.3-2.3,6.8-3.2
			c6.8-2.3,13.7-3.2,19.3,2.3c5.8,5.3,5.7,12.5,3.5,19.2c-6,18.3-19.2,29.1-38,32.5c-4.7,0.8-4.3,2.3-3.2,5.3
			c2,5.8,6.8,8.3,13.8,6.8c16-3.8,27-14.3,36.1-27.3c3.5-4.8,6.2-10,8.7-15.5c1.7-3.8,3.2-7.2,0-11.5c-2.8-3.8-1.3-8.5,1.5-12.2
			c3-3.8,6.8-6.3,11.8-5.3c4.7,0.8,6.3,4.3,5.8,8.5c-0.8,5.2,1.7,6.3,6,6.5c2.7,0.2,5.3,0.7,8,1c9.8,1,12.7,5.3,9.3,14.7
			c-2.8,8-6,16-9,24c-0.8,2.3-1.3,4.7-2.2,7.2c-0.8,2.3-1,4.5,1.2,6.2s4.5,1,6.5-0.3c11-7.2,19.8-16.3,22.3-29.8
			c4.7-24.5,11.3-48.1,24-69.8c3.7-6.3,7.7-12.3,13.5-16.8c4.8-3.5,10-5,15.5-2.3c5.3,2.7,6.8,7.7,7.2,13.5
			c0.3,8.3-2.2,15.8-5.3,23.1c-9.2,22.1-22.3,41.8-37.6,59.8c-5.3,6.5-5.3,12.8-3,19.7c1.7,5.3,6.2,6.7,11,3.7
			c8.5-5.3,12.7-14,16.8-22.6c0.8-1.7-0.5-2.8-1-4.3c-1.8-7.7-1.3-15.2,2.3-22.1c2.3-4.3,6-7.2,11.3-5.8c5,1.3,6.3,5.3,6.5,10.2
			c0.2,4.5-0.5,8.7-2.2,12.8c-0.8,2-2.8,4.7,0.3,6.5c2.8,1.7,5.5,3.2,9.2,1.7c3.5-1.7,4.8-4.7,6.2-8c4.5-11.3,11.7-20.5,21.8-27.3
			c4.2-2.8,8.7-4.8,13.7-5.5c13.2-1.7,21.3,7,18.3,20.2c-3.8,16.8-21.5,33.3-39,35.1c-3.8,0.5-3.7,2-3.2,4.7c1.2,5.8,6.5,9,13.2,7.7
			c8.8-1.7,16.5-5.8,23.3-11.7c17-14,28.8-32.1,38-51.8c1.3-2.5,2.3-5.3,4-7.5c2.7-3.3,6.5-4,10.3-2.3c3.8,1.7,4,5,3,8.3
			c-2.5,7.3-0.7,14.3,1.7,21.1c3.5,10,7.7,19.8,6.5,31c-1.3,12.8-11.5,23.1-25,25C1464.5,250.3,1454.5,244,1449.7,231.2z"/>
		<path class="st4" d="M855.2,195.4c5.3-6.2,9.5-11.3,14.5-15.7c6.5-5.3,13.7-8,22.1-6.3c5.8,1.2,8.3,4.7,8.7,10.3
			c0.7,9.3-3.2,17.5-6.3,25.8c-2.2,5.7-5,11-6.5,17c-0.5,2.3-1.5,4.7,1,6.2c2.2,1.5,4.7,0.5,6.5-0.8c8-5.8,15-12.3,17.8-22.3
			c3.7-13.7,11.2-25,22.3-33.6c5.2-4,11-6.8,17.7-7.7c12.3-1.3,20.2,7.7,17.3,19.7c-4.2,17.7-22.3,34-40.3,36.1
			c-3.2,0.3-3.3,1.7-2.8,4c1.3,6.2,6.5,9.5,13,8.2c9.2-1.8,16.7-6.5,23.3-12.7c16.2-14.8,28.1-32.5,37.3-52.3
			c2.2-4.7,4.5-8.8,10.8-8.3c4.7,0.3,7.2,2.8,6,7c-2.8,10.2,1,19.2,4,28.3c3.3,9.7,6,19.3,3,29.6c-4.5,15.5-19.7,24.5-34,20.3
			c-7-2-12-7.2-17-17.7c-8.3,7.2-16.8,14.2-28,16.8c-6.2,1.7-12.5,1.8-18.8,0.5c-8.8-2-13.2-8.3-15.5-17.2c-3.5,3.5-7,7.2-10.7,10.5
			c-1.8,1.7-3.8,3.2-6.2,4.3c-6.2,3.2-12.5,4.3-18.3,0.2c-5.7-3.8-5.8-9.8-5-16c1-8.3,4.5-15.8,7.2-23.3c1.3-3.8,2.8-7.5,4.2-11.3
			c0.5-1.7,1-3.5-0.5-4.8c-1.7-1.3-3.5-1-5.3,0c-5.3,2.5-9.2,7-12.7,11.3c-9.2,11.3-15.5,24.5-21.1,37.8c-1.5,3.3-3,6.7-6.8,8
			c-2.8,1-5.7,1-8.2-0.8c-2.5-1.8-2.3-4.5-1.5-7.2c0.5-1.3,0.5-2.8,1-4.8c-5.7,5.5-11.3,10.7-19,12.5c-13.5,3.5-22.8-3.2-22.3-16.8
			c0.7-18.8,7.8-35.8,16-52.5c0.8-1.7,2.3-3.2,3.8-4.2c3.2-2,6.8-2,9.8,0.2c3.2,2.2,2,5.3,1,8.3c-3.7,10.2-7.5,20.3-11,30.6
			c-1.2,3.5-1.7,7-2.7,10.7c-0.8,3.2-0.3,6.3,2.3,8.3c2.8,2.2,6,1.2,8.7-0.5c10.2-6.7,17.5-15.8,21.6-27.3c2.8-7.2,4.7-14.8,7-22.3
			c0.5-1.8,1.3-3.7,2.3-5.2c2.8-3.7,6.5-4.8,10.7-3.2c4.3,1.7,3.5,5.3,2.5,8.8C857.8,186.2,856.7,190,855.2,195.4z"/>
		<path class="st4" d="M1084,194.2c-2,0-3.8,0-5.5,0c-3.2,0-6.5,0-7.7-3.5c-1.2-3.7,0.2-7.2,3.2-9.8c3.2-2.8,7-3.2,10.7-3.2
			c3.5,0,4.8-1.7,5.8-4.8c4.3-13.8,8.7-27.6,14.8-40.6c2-4.3,4.5-7.3,9.8-7c8,0.5,11.7,5.3,8.2,12.5c-6.2,12.5-10.7,25.5-14.7,39.1
			c12,0,23.5-0.2,35,0.2c3.5,0.2,3.5-2.3,4.2-4.3c3.8-12.8,7.7-25.5,13-37.6c1.7-3.5,3-7.5,6.8-9.7c3.7-2,7.5-2,10.8,0.5
			c3.2,2.3,2.2,5.8,1,8.8c-4.8,13.8-9.7,27.6-14.5,41.5c2,1.3,4,0.5,5.8,0.5c5,0,6.5,2.7,3.8,6.8c-2,3.5-5.3,5.3-9.2,6.3
			c-3,0.7-4.7,2-5.3,5.5c-2.2,10.7-5,21.1-5.2,32.1c-0.2,7.2,1.3,8.3,8.3,7.2c1.3-0.2,2.8-0.5,3.7,0.8c1,1.2,0.5,2.5,0.2,3.8
			c-2.5,6.5-12.8,10.8-21.8,9.2c-6.2-1.2-9.8-6.5-10.2-14c-0.5-13,3.5-25.3,6.3-37.6c1-4.3-0.2-4.7-3.8-4.7
			c-9.8,0.2-19.5,0.5-29.3,0.2c-4.3-0.2-5.3,1.7-6.5,5.2c-4.3,14.5-8,29-11.3,43.6c-1,4.3-2.5,8.5-8.2,8.8c-8,0.5-11.3-3.2-9.8-11.2
			C1075,223.5,1079.8,209.2,1084,194.2z"/>
		<path class="st4" d="M741.8,143.4c-4.5,1.7-8.2,3.2-12,4.5c-2.2,0.8-4.5,1.3-6.3-0.8c-2-2.2-1-4.3,0.2-6.5
			c4.5-7.8,11.7-11.8,19.8-14.3c15.5-5,31.8-4.7,47.6-5.7c5.5-0.3,11-0.2,16.7-1c6.2-0.7,9.8,2,10.2,7.3c0.3,5.3-3,9.3-8.7,9.8
			c-14.8,1.7-29.8,0-44.8,2c-2.2,0.3-3.8,0.3-4.7,3c-3.8,13.2-8,26.1-12,39.5c9.2-0.5,18-0.8,26.6-1.2c4.3-0.2,8.8-0.7,9,5.8
			c0.2,6-3.8,10.3-9.7,10.5c-8.7,0.2-17.3,0.2-25.8,0.2c-3.8-0.2-5.7,1.3-6.7,5c-3.2,13.2-6.8,26.1-10.5,39.1
			c-1.8,6.5-5.3,8.8-11.2,8c-6.5-1-8.7-4.7-7.2-11.7c3.2-13.2,8-25.8,12-38.6c-1-1.5-2.3-0.5-3.7-1c-4.5-1-5.8-4.2-3.5-8
			c1.8-3.2,5-5.2,8.3-5.5c3.5-0.3,4.3-2,5-5C734.3,167.5,737.9,156.1,741.8,143.4z"/>
		<path class="st4" d="M820,161.1c-5.2,0-8.2-2.8-8-7.3c0.2-5.5,6.2-11.2,12.2-11.3c4.7-0.2,8,2.8,8,6.8
			C832.5,155.4,826.5,161.1,820,161.1z"/>
		<path class="st5" d="M1480.2,192.7c2,8,3.8,15,5.8,22.1c0.8,2.8,1,5.7,0.7,8.5c-0.5,5.8-3.2,10.7-9.2,12.7
			c-5.5,2-8.8-1.7-12.3-5.2c-2-2.2-3.3-5.2-6-6.8c-2.7-1.7-0.2-2.5,0.5-3.5c3.5-4.7,7.2-9,10.7-13.5
			C1473.7,202.5,1476.7,197.9,1480.2,192.7z"/>
		<path class="st5" d="M1402.7,211.7c4.3-10,8.7-18.7,16-25.6c2.8-2.7,6.2-5.2,9.5-2.5c3,2.3,1.7,6.3,0.2,9.5
			c-3.8,8.7-11.5,12.8-19.8,16.3C1407.1,210.2,1405.2,210.7,1402.7,211.7z"/>
		<path class="st5" d="M1195.9,211.5c4.2-9.5,8.2-18.2,15.2-24.8c1.3-1.3,2.8-2.5,4.7-3.5c2-1,4.2-1.3,6,0.2c1.8,1.5,2,3.5,1.5,5.8
			c-1.2,4.8-4,8.7-7.7,11.8C1209.9,206,1203.2,208.7,1195.9,211.5z"/>
		<path class="st5" d="M1336.9,183.7c4.7-18,9.8-35.5,20-51.1c1-1.3,1.7-3.7,3.5-2.8c2,0.8,0.8,3,0.5,4.7
			c-3.5,14.7-10.8,27.5-18.3,40.3C1340.8,177.7,1338.8,180.7,1336.9,183.7z"/>
		<path class="st5" d="M983.2,220.3c7.8-8.8,14.3-18.3,21-28.5c2.2,8,4.3,15,6.2,22.3c1.3,5,1.2,10.2-1.3,15c-4.3,8.3-13,8.7-18,1
			C988.7,226.5,986.9,222.8,983.2,220.3z"/>
		<path class="st5" d="M928.4,211.8c4.2-10.5,9.2-19.2,16.8-26.1c2.7-2.3,5.8-4.8,9.2-2.3c3.2,2.5,1.7,6.3,0,9.5
			C949.1,203.2,939.6,208,928.4,211.8z"/>
	</g>
	<path class="st4" d="M470.2,194.5c4.7-0.7,8.7-1.2,12.4-3.5c2.1-1.3,4.2-1.8,6,0c1.7,1.6,2.2,3.7,1.6,6.1c-1,3.4-3.1,5.9-6.1,7.4
		c-1.9,1-4.1,1.7-6,2.7c-4,2-10.3,0.7-12.1,4.1c-2.8,5.5-3.5,12.2-4,18.7c-0.6,7.8,1.1,13.6,9.5,16.4c3.9,1.3,4.1,5.4,0.4,7.5
		c-6.8,4-14.2,3.9-21.3,1.1c-6.5-2.5-10.2-7.6-11-14.6c-1-9,0.2-17.7,2.8-26.1c1.1-3.8,0.8-5-3.5-5.2c-10.6-0.6-21.4-1.3-31.9-2.7
		c-3.7-0.4-5.2,0.7-7,3.5c-7.3,12-14.7,23.9-25,33.5c-8.2,7.6-17.2,14-28.9,14.5c-20.5,1-33.8-16.4-27.5-36
		c5.9-18.4,19.9-27.5,37.8-31.8c9.4-2.3,18.9-2.7,28.6-2.9c3.7-0.1,5.5-1.3,7.3-4.3c11.5-19,23.1-38,37.9-54.9
		c6.5-7.5,14.2-13.6,24.5-14.7s19.7,1.3,27.9,7.9c5.8,4.7,7.6,10.6,5.3,17.8C482,157.3,476.2,175.6,470.2,194.5z"/>
	<path class="st4" d="M500.2,243.5c1.6-11.6,4.9-22.9,8.2-34.2c8.3-29.1,18.4-57.6,29.8-85.6c2.2-5.3,5.1-9.9,11.7-10.1
		c8-0.2,11.2,3.8,8.7,11.5c-5.6,17.6-11.4,35.1-17.3,52.7c-7.2,21.7-13.5,43.7-18.6,66.1c-1.9,8.3-7.3,11.5-15.6,9.3
		C502.3,252,500,248.7,500.2,243.5z"/>
	<path class="st5" d="M413,188c9.5-15.5,18.2-30.4,29.5-43.5c3.5-4,7.2-7.8,12.5-9.7c2.8-1,5.4-1.4,7.8,0.6c2.5,2.1,1.9,5.2,1.1,7.8
		c-2.1,7.5-4.7,15.1-7.1,22.5c-2.7,8.2-5.2,16.4-7.9,24.6c-0.4,1.2,0,3.2-2.5,2.5C435.7,190,424.5,190,413,188z"/>
	<path class="st5" d="M375.3,205.7c-6.1,10.2-11.4,19.6-19.4,27.1c-2.9,2.7-5.9,5.1-9.5,6.4c-3.5,1.3-7.2,2.1-10.4-0.8
		c-3.2-2.9-4.5-6.5-3.7-11c2.1-10.2,9.4-15.4,18.6-18.4C358.5,206.7,366.5,206.6,375.3,205.7z"/>
	<path class="st4" d="M639.2,213.2c1.9-2.1,3.1-4.2,3.9-6.2c0.7-2,1.3-4,1.8-6c2.1-7.8,6.5-13.8,13.3-18.5c1.6-0.3,2.8,0.1,3.5,1.2
		c0.8,1.1,1.7,2,2.7,2.7c2,1.6,3.1,3.2,3.4,4.9c0.3,1.7,0,3.7-0.9,5.9c-1.6,4.5-3.2,9.1-5,13.5s-3.9,8.7-6.4,12.8
		c-1.1,2-1.7,3.3-1.4,4.1c0.2,0.7,1.2,1.9,3.1,3.4c2.4,2,4.9,4,7.2,6s4.4,4.3,6.1,6.9c-0.1,0.4-0.2,0.8-0.1,1.2c0.1,0.3,0,0.7-0.3,1
		c-2.4,2.8-4.3,4.8-5.5,6.1c-1.3,1.3-2.4,2.1-3.5,2.1c-1.1,0.1-2.3-0.4-3.7-1.7c-1.3-1.1-3.3-2.8-5.9-5c-2.9-2.8-6-5.3-9.2-8
		c-1.8,1.3-3.3,2.5-4.8,3.7s-2.9,2.3-4.5,3.4c-4.9,3.5-10.4,5.5-16.5,6c-3.3,0.3-6.4,0-9.3-1c-2.9-0.9-5.6-2.5-8.1-4.9
		c-1-0.9-1.9-1.8-2.8-2.7c-0.9-0.9-1.8-1.8-2.8-2.7c-4.3-4-6.8-8.3-7.3-13c-0.6-4.7,0.1-9.5,2.1-14.5c2.3-5.9,5.6-11.2,10.1-16.1
		c1.6-1.9,2.5-3.7,2.9-5.4c0.3-1.8,0-3.9-1.2-6.3c-2.3-4.8-4-9.6-5-14.6s-1.7-10.2-1.9-15.5c-0.1-11.6,3.8-21.3,11.6-29.2
		c2.9-2.8,5.8-5.2,8.6-7.6c2.9-2.3,6.3-4.1,10.3-5.2c8.9-2.1,16.5-0.6,22.9,5c1.4,1.1,2.8,2.4,4.1,3.8s2.5,2.7,3.9,4
		c4,3.8,6.2,7.8,6.6,12.1c0.4,4.3-0.2,8.7-1.9,13.5c-1.9,5.2-4.8,9.9-8.6,14.2c-3,3.3-6.1,6.5-9.1,9.6c-3.1,3.1-6.2,6.3-9.3,9.6
		c-0.9,1-1.8,1.9-2.7,2.8c-0.9,0.9-1.9,1.8-2.9,2.5c-1.8,1.8-1.9,3.8-0.4,6c1.9,2.9,3.8,5.6,5.8,8.3
		C634.1,208.3,636.4,210.8,639.2,213.2z M612.2,209.4c-2.3,2.8-3.9,5.6-4.7,8.6c-0.8,3.1-1,6.3-0.8,9.7c0.3,1.9,1.3,3.1,3.2,3.9
		c1.9,0.7,3.7,1,5.4,1c1.8-0.1,3.5-0.4,5.2-1c1.6-0.4,3.1-0.9,4.7-1.4c1.6-0.6,2.8-1.7,3.8-3.5c-2.4-2.9-4.9-5.6-7.4-8.4
		c-2.5-2.8-5-5.4-7.4-8.2C614,209.9,613.3,209.6,612.2,209.4z M613.9,155.7c-0.3,2.9-0.1,5.9,0.6,8.9c0.7,3.1,1.3,6.1,2,9.1
		c0.3,1,0.8,1.6,1.6,1.8c0.7,0.1,1.4,0,2.1-0.4c3.9-2.9,7.4-6.1,10.5-9.6s5.8-7.5,7.8-12.1c1.4-2.9,2.4-5.8,3-8.7
		c0.6-3-0.1-5.8-2.1-8.2c-1-1.1-2.2-1.9-3.5-2.3c-1.3-0.4-2.8-0.6-4.2-0.6c-1.4,0.1-2.9,0.3-4.5,0.7c-1.6,0.3-3.1,0.8-4.5,1.2
		c-3.1,0.9-5.2,2.8-6.2,5.8c-0.9,2.3-1.6,4.7-2,7C613.6,150.5,613.6,153,613.9,155.7z"/>
	<path class="st1" d="M227.6,261.4l6.2-0.4C233.8,261,232.7,261.8,227.6,261.4z"/>
</g>
</svg>
