<?xml version="1.0" encoding="utf-8"?>
<!-- Generator: Adobe Illustrator 24.1.2, SVG Export Plug-In . SVG Version: 6.00 Build 0)  -->
<svg version="1.1" id="Calque_1" xmlns="http://www.w3.org/2000/svg" xmlns:xlink="http://www.w3.org/1999/xlink" x="0px" y="0px"
	 viewBox="0 0 297 375.5" style="enable-background:new 0 0 297 375.5;" xml:space="preserve">
<style type="text/css">
	.st0{fill:#1F9944;}
	.st1{fill:url(#SVGID_1_);}
	.st2{fill:url(#SVGID_2_);}
	.st3{fill:#20B251;}
	.st4{fill:url(#SVGID_3_);}
	.st5{fill:url(#SVGID_4_);}
	.st6{fill:#669C2F;}
	.st7{fill:url(#SVGID_5_);}
	.st8{fill:#FEFEFE;}
	.st9{fill:#EC9944;}
	.st10{fill:#DA8839;}
</style>
<path class="st0" d="M218,154c-1.3-1.2-0.5-2.9-0.6-4.3c-0.2-1.9-0.4-3.7-0.7-5.5c-0.1-0.6-0.4-1.2-1-2c-9.5,17.8-20.8,34.2-31,51.6
	c-0.7-2.1-0.5-4-0.6-5.9c0-0.1-0.1-0.1-0.1-0.2c-0.1,0.1-0.1,0.2-0.2,0.4c-0.7-0.2-0.7-0.8-0.7-1.3c-0.2-3.1-0.9-6.1-1.6-9.2
	c-0.2-0.7-0.5-1.4,0.1-2.2c3-7.7,6.1-15.2,10-22.4c2.6-4.9,5.6-9.4,10-12.8c4.2-3.3,10.6-3.1,14,0.5c1.1,1.2,1.6,2.7,2.1,4.1
	c0,1,0.2,2,0.5,2.9l0,0c0.3,1.9-0.1,3.8,0.2,5.7C218.2,153.5,218.1,153.8,218,154z"/>
<linearGradient id="SVGID_1_" gradientUnits="userSpaceOnUse" x1="93.3734" y1="252.2146" x2="259.6001" y2="252.2146">
	<stop  offset="5.586592e-03" style="stop-color:#22C55E"/>
	<stop  offset="1" style="stop-color:#20B251"/>
</linearGradient>
<path class="st1" d="M203.3,195.5c1.6,0.1,3.2,0.2,4.7,0.4c0.6,0.1,1.2,0,1.6-0.5c2.7-0.2,5.3,0.5,8,0.7c2.6,0.2,5.3,0.3,7.9,0.6
	c4.7,0.4,9.5,0.7,14.3,1.1c2.8,0.2,5.6,0.4,8.4,0.8c2.6,0.4,5,1.1,7.1,2.7c0.5,0.4,1,0.7,1.1,1.3c0.1,0.8,0.8,1.2,1.3,1.8
	c2,3,2.4,6.2,1.3,9.5c-3.5,10.8-7.1,21.6-10.7,32.4c-3.3,10-6.7,19.9-9.9,29.9c-2.1,6.4-4,12.9-6.5,19.1
	c-3.1,7.5-8.7,12.3-16.6,14.4c-1,0.3-2,0.2-3,0.3c-0.5-0.2-1.1-0.1-1.6-0.1c-33.6,0-67.1,0-100.7,0c-1.6,0.2-2.6-0.9-3.8-1.6
	c-2.6-1.6-5-3.6-7.2-5.8c-2.2-2.3-3.9-4.9-5.3-7.7c-0.2-0.4-0.4-0.8-0.3-1.2c0.3-0.8,1-1.2,1.5-1.8c13.8-13.8,27.6-27.7,41.5-41.5
	c0.5-0.5,0.9-0.9,1.4-1.4c0.5-0.4,0.6-1,0.6-1.6c0.4-0.2,0.7-0.2,1.1-0.1c1.8,0.3,3.6,0.2,5.4-0.2c2.4-0.6,4.4,0.1,6.1,1.8
	c1.6,1.7,3,3.6,4.5,5.3c1,1.1,1.3,1.2,2.4,0.1c0.8-0.7,1.5-1.5,2.4-2.1s0.8-1.1,0-1.7c-1.8-1.4-3.3-3.1-5-4.7
	c-1.6-1.6-2.3-3.4-1.7-5.6c0.8-2.9,0.5-5.8,0.6-8.7c0.2-0.4,0.2-1.3,0.9-0.5c0.3,0.4,0.4,0.1,0.6,0c0.2-0.2,0.4-0.3,0.6-0.5
	c10-9.6,19.8-19.4,29.5-29.2c1.9-2.1,4.2-3.8,6.1-5.8c0.9-0.9,2-1.1,3.1-0.9c2.5,0.3,5,0.2,7.4,0.6
	C202.6,195.2,203,195.3,203.3,195.5z"/>
<linearGradient id="SVGID_2_" gradientUnits="userSpaceOnUse" x1="69.1715" y1="239.2681" x2="185.9" y2="239.2681">
	<stop  offset="5.586592e-03" style="stop-color:#22C55E"/>
	<stop  offset="1" style="stop-color:#20B251"/>
</linearGradient>
<path class="st2" d="M138.2,247.5c0.3,0.4,0.7,0.8,0.1,1.3c-0.3,0.3-0.7,0.7-1,1c-14.2,14.2-28.5,28.5-42.7,42.7
	c-0.3,0.3-0.7,0.6-1.1,0.9c-0.9-0.3-1.1-1.1-1.3-1.8c-1.3-4-2-8.1-2.9-12.2c-3.3-14.8-6.4-29.6-9.6-44.4
	c-2.9-13.1-5.7-26.3-8.5-39.4c-0.6-2.6-1.3-5.3-1.8-7.9c-0.1-0.7-0.6-1.5,0.3-2c0.1,0,0.2-0.1,0.4-0.1c1-0.7,2.1-0.4,3.1-0.4
	c0.2,0,0.4,0,0.6,0c4.4,0.1,8.8,0.4,13.2,0.7c4.6,0.3,9.3,0.7,13.9,1.1c1.4,0.1,2.8,0.4,4.3,0.4c3.3,0.5,6.6,0.7,10,0.9
	c1.2,0.1,2.4,0.1,3.5,0.8c2.2,0.2,4.5,0.2,6.7,0.6c0.5,0.5,1.2,0.3,1.8,0.3c5.6,0.2,11.1,0.8,16.6,1.2c3.7,0.2,7.4,0.6,11.1,0.8
	c2.9,0.1,5.8,0.3,8.7,0.7c1.2,0.2,2.4,0.5,3.7,0.2c0.5-0.1,1,0.1,1.3,0.5c0.6,0.6,1.2,1,2,1.2c0.5,0.2,0.9,0.5,1.1,1.1
	c0.1,0.3,0.1,0.7,0,0.8c-1.6,0.7-0.3,2.4-1.3,3.3c-0.2,0.2-0.8,0.1-0.6,0.7c0.1,0.4,0.6,0.6,0.9,0.4c1.5-0.8,2.9-0.1,4.3,0
	c1,0,1.9,0.3,2.1,1.3c0.3,1-0.3,1.7-1.3,2c-0.5,0.1-0.5,0.3-0.4,0.8c0.1,0.6,0,1.2-0.1,1.7c-0.1,0.8-0.5,1.4-1.3,0.6
	c-0.7-0.6-1.3-0.7-1.2,0.5c0,0.7-0.4,1-1,1.2c-1.7,0.6-1.9,1.4-0.5,2.7c0.6,0.6,0.9,1.3,0.1,1.7c-1.4,0.7-2.2,1.9-2.8,3.1
	c1-0.4,1.9-1.3,2.7-2.3c1.4-1.5,2.7-3.2,4.6-4.1c0.2-0.1,0.5-0.3,0.6-0.5c1.7-3.1,4.8-4.8,7.2-7.1c0.6-0.5,1.2-1.3,2.2-0.9
	c-1.4,1.4-2.7,2.8-4.1,4.2c-5.5,5.5-10.9,11-16.5,16.4c-3.4,3.2-6.7,6.6-10.1,9.8c-0.5-0.2-0.1-0.8-0.4-1.1c0,0-0.1,0-0.1,0.1
	s-0.1,0.2-0.1,0.3c-0.8-0.1-0.7-0.9-0.8-1.4c-1.5-6.9-5.7-12-10.7-16.6c-3.7-3.4-7.9-5.9-13-6.7c-5.2-0.7-9.2,1.3-10.9,6.2
	c-1.6,4.5-1.2,9.2,0.2,13.6c3,9.4,8.7,16.4,18.1,20.2C137.7,246.9,138.1,246.9,138.2,247.5z"/>
<path class="st3" d="M214.7,10.2c11.6,0.4,22.5,8.7,26.2,19.8c0.5,1.4,1,2.9,1.2,4.4c-0.4,1.1,0.2,2.2,0.3,3.3
	c0.1,1.3,0.2,2.5,0.2,3.8c0,35,0,70,0,105c0,0.9,0.1,1.8-0.5,2.6c-2.4,3.5-5.1,6.7-7.7,10.1c-0.4,0-0.8,0.1-0.8-0.5c0-0.5,0-1,0-1.4
	c0-39.2,0-78.4,0-117.6c0-1.2,0-2.5-0.6-3.6c-2.3-8.2-7.3-13.9-15.7-16.1c-1.2-0.3-2.4-0.5-3.6-0.5c-5,0-10,0-15,0
	c-2.6,0-3.6,0.9-4.2,3.4c-0.4,1.7-0.7,3.4-1.3,5c-1.3,3.8-3.7,6.7-7.6,8.1c-5.9,1.2-11.8,0.6-17.7,0.7c-13.2,0.1-26.4,0-39.7,0
	c-2.1,0-4.2-0.1-6.3-0.6c-4.4-1.2-7.1-4.3-8.7-8.4c-0.6-1.6-1-3.3-1.3-5c-0.3-1.5-1.1-2.6-2.5-3.2c-0.1-0.2-0.3-0.2-0.6-0.2
	c-5.5,0-10.9,0-16.4,0c-0.2,0-0.4,0-0.5,0.2c-2.5,0.7-5.1,1.2-7.4,2.6c-6.2,3.6-9.8,8.9-10.8,16c0,0.2-0.2,0.4-0.3,0.6
	c-0.4,0.5-0.2,1-0.2,1.5c0,12.1,0,24.1,0,36.2c0,0.6,0.1,1.2-0.1,1.7c-0.6,0.2-0.9-0.5-1.4-0.5c-2.3-1.5-4.6-3.1-6.9-4.6
	c-0.2-0.6-0.1-1.3-0.1-1.9c0-10.2,0-20.5,0-30.7c0-0.6,0.1-1.2-0.1-1.7c1-16.4,14.1-27.6,29-28.4c0.6,0.2,1.2,0.1,1.7,0.1
	c39.3,0,78.5,0,117.8,0C213.6,10.3,214.2,10.4,214.7,10.2z"/>
<path class="st3" d="M69.5,185.7c-0.3,1.7,0.5,3.3,0.8,4.9c3.2,14.1,6.2,28.2,9.2,42.3c1.6,7.3,3.2,14.7,4.8,22
	c2.5,11.6,5.1,23.2,7.6,34.7c0.3,1.3,0.6,2.7,1.5,3.8c1.8,4.4,4.7,7.9,8.2,11.1c1.9,1.8,4.5,2.6,6.2,4.7c0.3,0.3,1-0.1,1.3,0.4
	c-1.6,0.4-3.2,0.1-4.8,0.2c-0.6,0-1.3-0.1-1.9,0.1c-11.5-0.7-19.7-8.8-21.9-17.3c-1.8-6.7-3.1-13.5-4.6-20.3
	c-1.2-5.5-2.4-10.9-3.6-16.4c-2.6-12-5.2-24-8-35.9c-2.3-9.9-4.1-20-7-29.8c-2.7-9.2-5.6-18.3-8.6-27.4c-0.5-1.6-1.3-2.8-2.9-3.5
	c-0.2-0.4-0.6-0.2-0.9-0.2c-8.2,0-16.4,0-24.6,0c-0.3,0-0.6,0-0.9,0.1c-3.9-1-6-4.3-5.4-8.7c0.5-3.6,3.6-6.1,7.8-6.1
	c7.8,0,15.6,0,23.4,0c1.7,0,3.5-0.1,5.2,0.4c4.7,1.3,7,4.8,8.5,9.1c2.5,7.3,4.8,14.7,7.2,22c0.9,2.7,1.6,5.5,2.5,8.3
	C68.8,184.8,68.7,185.6,69.5,185.7z"/>
<linearGradient id="SVGID_3_" gradientUnits="userSpaceOnUse" x1="34.5571" y1="97.6478" x2="92.825" y2="97.6478">
	<stop  offset="5.586592e-03" style="stop-color:#22C55E"/>
	<stop  offset="1" style="stop-color:#20B251"/>
</linearGradient>
<path class="st4" d="M64.7,121.5c-1.3-1.2-3-1.8-4.5-2.6c-9.9-5.6-17.3-13.5-21.1-24.4C36.8,88,35.4,81.3,35,74.4
	c-0.1-1.8-0.1-3.6-0.4-5.4c-0.2-1.3,0.3-1.5,1.5-1.5C43.7,67.4,51,69,58,71.8c7.6,3,14.2,7.5,19.8,13.5c6.4,6.9,10.3,15.1,12.8,24.1
	c1.1,4,1.7,8.1,2.1,12.1c0.1,0.7,0.3,1.4-0.2,2c-0.8,0.2-0.8-0.5-1.1-0.9c-3.2-5.5-6.9-10.7-11-15.6c-6-7.1-12.8-13.3-21.4-17
	c2,2,3.9,4.3,5.9,6.6c4.6,5.2,9.3,10.4,13.3,16.1c3,4.3,5.8,8.7,8.1,13.3c0.3,0.5,0.9,1.2,0.2,1.8c-3.8,0-7.4-1.1-11-2.1
	c-0.7-0.2-1.4-0.4-2.1-0.7C70.5,124,67.5,123,64.7,121.5z"/>
<path class="st0" d="M256.3,202.6c-3.5-2.9-7.6-3.6-12-3.9c-5.5-0.4-10.9-1-16.4-1.3c-0.8,0-1.6-0.2-2.4-0.3
	c-0.6-0.9,0.1-1.5,0.6-2.1c3.6-4.7,7.4-9.3,11.2-13.9c1.9-2.3,3.5-4.8,5.4-7.1c0.4-0.5,0.7-1,1.5-1c6.4-6.2,13.4-11.7,20.3-17.3
	c3.4-2.8,6.8-5.5,10.2-8.1c3.3-2.5,8.3-2.8,11.2-0.7c5.1,3.6,5.2,10.5,0.2,14.4c-3.3,2.6-6.8,5.1-10.2,7.6
	c-7.3,5.3-14.5,10.6-21.8,15.9c-0.2,0.1-0.3,0.2-0.4,0.6c3-1.2,5.9-2.4,8.9-3.6c3.2-1.3,6.4-2.7,9.8-3.4c5.1-1.1,9.8,3.4,9.1,8.7
	c-0.5,3.4-2.1,6.1-5.1,7.5C270.1,197.9,263.2,200.3,256.3,202.6z"/>
<linearGradient id="SVGID_4_" gradientUnits="userSpaceOnUse" x1="135.2063" y1="88.9936" x2="189.7592" y2="88.9936">
	<stop  offset="5.586592e-03" style="stop-color:#22C55E"/>
	<stop  offset="1" style="stop-color:#20B251"/>
</linearGradient>
<path class="st5" d="M135.3,110c-0.6-11.3,1.6-21.8,9-30.7c4.8-5.7,10.8-9.8,17.8-12.4c5.9-2.2,11.9-3.4,18.2-3.9
	c2.8-0.2,5.6-0.1,8.4-0.2c0.9,0,1.2,0.2,1,1.2c-1.7,8.5-3.6,17-7.3,24.9c-5.8,12.5-14.7,21.6-28.4,25.1c-4.8,1.2-9.7,1.4-14.7,1
	c-0.4-0.5,0-0.9,0.2-1.3c3.6-6.9,7.6-13.5,12.7-19.4c6-6.9,12.4-13.3,19.8-18.6c0.3-0.2,0.7-0.4,1-0.6c-3.1,1.8-6.3,3.3-9.3,5.2
	c-8,5.1-14.5,11.7-20.3,19.1c-2.4,3.1-4.9,6.2-6.9,9.6C136.4,109.5,136.1,110.1,135.3,110z"/>
<path class="st0" d="M135.3,110c1.7-2.3,3.3-4.6,5-6.9c5.5-7.5,11.5-14.5,19-20.1c4.6-3.5,9.6-6.4,15.1-8.5
	c-1.4,1.1-2.9,2.2-4.3,3.3c-12.1,9.4-22.1,20.7-29.2,34.3c-0.5,1-1.3,1.8-1.5,2.9c-7.4,13.5-13.4,27.5-16.8,42.5
	c-1.8,8-3,16.1-3.7,24.3c-0.2,2.4-0.3,4.9-0.5,7.3c-4.5-0.4-9.1-0.5-13.6-1.3c-0.6-0.4-0.6-1-0.7-1.5c-2.1-12.9-4.9-25.6-9.2-37.9
	c-2.3-6.5-5-12.9-7.9-19.2c-0.2-0.5-0.6-1-0.4-1.7c-3.7-7.8-8.5-14.9-14-21.6C68,100.3,63.1,95,58.3,89.7c-0.1-0.1-0.3-0.3-0.2-0.6
	c5.3,2.1,10,5.2,14.3,9c8,7.2,14.5,15.6,19.8,25c0.1,0.1,0.2,0.2,0.3,0.3c2.3,4.8,4.7,9.5,6.7,14.4c4.2,9.9,7.3,20.1,9.8,30.5
	c1.1,4.5,2,9.1,2.7,14.1c0.6-2.1,0.5-3.9,0.7-5.7c1.5-11.8,3.7-23.5,7.5-34.8C123.8,130.6,129,120,135.3,110z"/>
<path class="st3" d="M105.1,367.3c-11.3,0-21.7-8.2-21.7-22.4c0-12.6,9.7-21.4,20.6-21.8c13.7-0.5,22.6,10.5,23,21.1
	C127.5,357.3,117.1,367.4,105.1,367.3z"/>
<path class="st3" d="M179.9,344.9c-0.4-12.5,10.5-21.7,21.4-21.8c11.9-0.1,22.1,9.4,22.1,21.9c0,12.1-9.6,22.1-21.6,22.3
	C190.2,367.5,179.4,358,179.9,344.9z"/>
<path class="st3" d="M244.3,173.1c-1.4,1.7-3,3.3-4.3,5.2c-1.5,2.3-3.3,4.4-5.1,6.4c-3,3.6-5.9,7.3-8.8,11c-0.3,0.4-0.6,0.9-0.6,1.4
	c-4.6-0.3-9.1-0.4-13.6-1.2c-0.8-0.1-1.7,0.4-2.4-0.5c2.8-4,5.6-7.9,8.4-11.9c7.3-10.2,14.8-20.2,22.5-30.2c3.9-5.1,7.4-10.5,12-15
	c2.5-2.5,6.4-2.9,9.4-1.1c3.3,2,4.5,6.4,2.6,10.2c-1.4,2.8-3.6,5.1-5.6,7.5c-4.7,5.8-9.5,11.5-14.3,17.3
	C244.5,172.5,244.4,172.8,244.3,173.1z"/>
<path class="st3" d="M216.1,142.1c-1-0.1-1.3,1.2-1.7,1.9c-4.7,8.1-9.6,16-14.5,24c-3.5,5.7-7.6,11.2-10.9,17.1
	c-1.1,2-2.4,3.9-3.7,5.9c0-0.1,0-0.2-0.1-0.3c-0.4,0.7-0.9,1.3-1.7,1.8c-0.4,1-1.3,0.9-4,0.6c-4.2-0.3-8.3-1-12.5-0.4
	c-3-0.2-6.1-0.4-9.1-0.6c-4.5-0.3-9.1-0.7-13.6-1c0,0.1-0.1,0.2-0.1,0.3c1.6,0.1,3.2,0.3,4.7,0.4c3.6,0.3,7.3,0.3,10.8,0.8
	c1.7,0.3,3.7-0.5,5.1,1.1c0.3,0.3,0.7-0.2,1-0.3c0.7-0.3,1.6-0.5,2.2,0.2c0.6,0.7,1.2,1.3,2.2,1.3c0.5,0,1,0.5,0.9,1.1
	c-0.1,0.6-0.4,1.2-1.2,0.9c-0.2-0.1-0.5-0.1-0.6,0.1c-0.2,0.3,0,0.5,0.2,0.7c0.8,1,0.8,1-0.4,1.5c-0.6,0.2-0.8,0.8-0.3,1.4
	c0.6,0.7,1.3,0.8,2.1,0.4c0.4-0.3,0.9-0.8,1.3-0.5c0.9,0.6,1.9,0.5,3,0.5c0.6,0,1.2,0.4,1.2,1.1s-0.3,1.3-1,1.5
	c-0.3,0.1-0.7,0-1.1,0.1c-0.4,0.1-0.8,0.3-0.3,0.7c1.2,0.9-0.1,1.9,0.6,3.1c-0.5-0.2-0.6-0.3-0.6-0.3c-0.5-0.4-0.4-1.5-1.6-1
	c-0.9,0.4-1,0.7-0.5,1.6c0.3,0.6-0.4,0.7-0.8,0.7c-1.3,0-1.5,0.8-1.8,1.8c-0.3,1.2,0.5,1.2,1.1,1.6c0.3,0.2,0.7,0.3,0.6,0.8
	c-0.1,0.4-0.4,0.6-0.8,0.6c-0.9,0.1-1.4,0.7-1.7,1.5c-0.3,0.9-0.7,1.7-1.4,2.4c1-0.6,2.2-0.8,3.1-1.7c1.8-1.8,3.3-4,5.7-5.2
	c0.3-0.2,0.6-0.5,0.8-0.8c1-2,2.6-3.5,4.4-4.7c1.6-1,2.5-2.8,4.4-3.3c2-1.9,4.1-3.8,6.1-5.7c0.7-0.7,1.5-1.1,2.5-1
	c2.9,0.2,5.9,0.4,8.9,0.6c0-0.2,0-0.4,0.1-0.6c4.4-8.8,8.5-17.7,11.7-27c1.7-4.6,3.2-9.4,3.5-14.4
	C218.4,152.8,217.2,142.2,216.1,142.1z"/>
<path class="st6" d="M219,146.3"/>
<path class="st3" d="M64.7,121.5c1.3-0.1,2.4,0.7,3.6,1.2c1.7,0.6,3.4,1.4,5.1,2c0,0.1,0,0.2,0,0.3c0.1,18.2,0,36.4,0,54.6
	c0,1.4,0,2.8,0,4.1c0,0.6,0.1,1.3-0.4,1.8c-1.1,0-2.1,0-3.2,0c-0.9-4.4-2.4-8.7-3.6-13c-0.5-1.8-1.2-3.6-1.5-5.5
	c0.4-1.5-0.2-3-0.2-4.6c0-12.9,0-25.8,0-38.7c0-0.6,0.1-1.2-0.1-1.7C64.5,122,64.6,121.8,64.7,121.5z"/>
<path class="st3" d="M233.1,36c0.9,1,0.8,2.2,0.8,3.4c0,26.8,0,53.7,0,80.5c0,12.6,0,25.2,0,37.8c0,0.6-0.2,1.3,0.6,1.5
	c-0.2,0.3-0.4,0.6-0.7,1c-0.4-0.7-0.2-1.3-0.2-1.8c0-39.1,0-78.1,0-117.2C233.6,39.5,233.5,37.8,233.1,36z"/>
<path class="st3" d="M214.7,10.2c-0.5,0.4-1.1,0.2-1.7,0.2c-39.2,0-78.4,0-117.5,0c-0.7,0-1.4,0.2-2-0.2c13.1,0,26.3-0.1,39.4-0.1
	c26.7,0,53.4,0,80.1,0C213.6,10.2,214.1,10.2,214.7,10.2z"/>
<path class="st3" d="M122,36c19.5,0.7,39.1,0.1,58.6,0.4c1.7,0,3.4-0.7,5.1-0.4c-1.8,0.7-3.8,0.9-5.7,0.9c-17.5,0-34.9,0-52.4,0
	C125.7,36.9,123.8,36.9,122,36z"/>
<path class="st3" d="M242.2,149.1c0.2-1,0.3-2,0.3-3c0-35.1,0-70.2,0-105.3c0-1.6-0.3-3.3-0.5-4.9c-0.1-0.5-0.3-1,0.1-1.5
	c1.2,5.9,0.7,12,0.7,17.9c0.1,31.5,0,63,0,94.4C242.9,147.7,243,148.5,242.2,149.1z"/>
<linearGradient id="SVGID_5_" gradientUnits="userSpaceOnUse" x1="102.4" y1="309.8578" x2="212.1" y2="309.8578">
	<stop  offset="5.586592e-03" style="stop-color:#22C55E"/>
	<stop  offset="1" style="stop-color:#20B251"/>
</linearGradient>
<path class="st7" d="M102.4,310c2.2-0.6,4.5-0.1,6.7-0.3c18.5,0,37,0,55.5,0c15.2,0,30.5,0,45.7,0c0.6,0,1.3-0.2,1.8,0.2
	c-11.2,0-22.4,0-33.7,0c-24.7,0-49.3,0-74,0C103.8,310.1,103.1,310.1,102.4,310z"/>
<path class="st3" d="M64.5,122.2c0.5,0.5,0.3,1.1,0.3,1.7c0,12.2,0,24.4,0,36.6c0,1.5-0.1,3.1,0.2,4.6c0.1,0.7,0.3,1.5-0.2,2.1
	c-0.9-11.8-0.2-23.5-0.4-35.3C64.4,128.6,64.4,125.4,64.5,122.2z"/>
<path class="st3" d="M214.5,44c0.2-1.7,1.1-2.6,2.2-2.5c1.2,0.1,2,1.1,1.8,2.5c-0.1,1.1-1.2,2.1-2.3,1.9
	C215.1,45.6,214.5,44.8,214.5,44z"/>
<path class="st3" d="M71.7,77.5c0.5-0.1,0.8,0.3,1.2,0.4c0.4-0.4,0.2-0.9,0.2-1.3c0-12,0-23.9,0-35.9c0-0.7,0-1.4,0.1-2l0.1-0.1
	c0,0,0.1,0,0.1,0.1c0,13.4,0,26.8,0,40.7C72.7,78.5,72.2,78,71.7,77.5z"/>
<path class="st3" d="M218.6,50.4c-0.1,1.2-0.7,2-2,1.9c-1.3,0-2-0.7-2-2c0-1.1,1.1-2.3,2.1-2.2C217.9,48.2,218.6,49.1,218.6,50.4z"
	/>
<path class="st3" d="M64.5,38.6c0.5,0.6,0.2,1.2,0.2,1.8c0,10.8,0,21.6,0,32.5c-0.4-0.3-0.3-0.7-0.3-1
	C64.5,60.8,64.5,49.7,64.5,38.6z"/>
<path class="st3" d="M19.5,159.4c0.2-0.1,0.5-0.2,0.7-0.2c8.4,0,16.8,0,25.3,0c0.1,0,0.3,0,0.4,0.1c0,0,0,0.2,0,0.3
	c-7.9,0-15.8,0-23.7,0C21.3,159.5,20.4,159.5,19.5,159.4z"/>
<path class="st3" d="M91.9,19.4c0,0-0.1,0-0.1-0.1c-0.1-0.1-0.1-0.1-0.1-0.2c0.1,0,0.2-0.1,0.3-0.1c5.8,0,11.6,0,17.4,0
	c0,0,0.1,0,0.1,0.1s0,0.2,0,0.3C103.6,19.4,97.7,19.4,91.9,19.4z"/>
<path class="st8" d="M134.3,285c0.1-2.7,1.2-4.7,3-6.3c3.7-3.4,7.5-6.6,11.2-9.9c5.9-5.1,11.7-10.3,17.6-15.4
	c1.8-1.6,2.4-3.4,1.8-5.8c-0.6-2.4-1-5-0.6-7.5c0.4-2.7,2-4.7,3.9-6.4c5.1-4.8,10.4-9.4,15.6-14.1c2.4-2.1,4.7-1.6,5.3,1.1
	c0.2,1,0,1.8-0.7,2.5c-3.5,3.7-6.9,7.3-10.4,11c-0.5,0.6-1,1.2-1.5,1.8c-0.9,1.1-0.6,2.2,0.3,3.1c1,0.9,2.1,0.8,3,0
	c2.3-2.2,4.6-4.6,6.9-6.9c1.7-1.7,3.3-3.6,5.1-5.3c1.6-1.6,2.8-1.7,4.2-0.5c1.5,1.3,1.5,3.1,0.1,4.8c-3.3,3.7-6.6,7.3-10,11
	c-0.5,0.5-1,1.1-1.5,1.7c-0.9,1.1-1,2.2,0.1,3.2c1.1,1.1,2,1.1,3.3-0.2c3.8-3.8,7.5-7.7,11.3-11.5c1.7-1.7,2.8-1.9,4.3-0.8
	c1.2,0.9,1.6,2.5,0.9,3.8c-0.3,0.6-0.7,1.2-1.2,1.7c-5,5.6-9.9,11.2-15.3,16.5c-3.3,3.2-7,4.1-11.4,2.6c-0.7-0.2-1.5-0.5-2.3-0.7
	c-2-0.4-3.6,0.1-5,1.7c-4.6,5.5-9.2,10.9-13.7,16.3c-3.4,4.1-6.8,8.3-10.3,12.3c-3.1,3.5-6.5,4.3-10,2.4
	C135.8,289.9,134.6,287.7,134.3,285z"/>
<path class="st8" d="M138.2,247.5c-10.2-3.9-16.5-11.3-19.5-21.6c-1.1-3.8-1.3-7.7-0.5-11.6c1.4-6.4,6.8-9.4,13.5-7.7
	c6.2,1.6,10.9,5.3,15,9.9c3.4,3.8,6.2,8,7.3,13.1c0.1,0.6,0,1.2,0.4,1.7c0.1,3.4,0.1,6.8-0.8,10.1c-0.4,1.5,0.4,2.7,1.3,3.7
	c2.1,2.3,4.3,4.4,6.9,6.3c-1.7,1.2-3.1,2.4-4.5,3.8c-0.7,0.7-1.2,0.7-1.9-0.1c-1.7-2.1-3.5-4.2-5.4-6.3c-1.3-1.5-3-2-5.1-1.4
	C142.8,248,140.5,248,138.2,247.5z"/>
<path class="st8" d="M193.7,285.2c0.1,3.2-1.4,5.6-3.9,6.6c-2.4,1-5,0.4-7-1.6c-3.3-3.5-6-7.4-8.9-11.2c-1.3-1.7-2.6-3.5-3.9-5.2
	c-0.9-1.2-1-2.4,0.1-3.6c1.4-1.6,2.9-3.1,4.3-4.7c0.5-0.6,0.8-0.3,1.2,0.1c5.4,5.2,10.7,10.3,16.1,15.5
	C193.1,282.2,193.8,283.7,193.7,285.2z"/>
<path class="st3" d="M73.4,124.7c0,19.8,0,39.5,0,59.3c0,0.5,0,1.1,0,1.6c-0.1,0-0.2,0-0.3,0c0-19.8,0-39.7,0-59.5
	C73.1,125.6,72.9,125.1,73.4,124.7z"/>
<path class="st8" d="M115.8,345.2c0.1,5.8-4.6,10.6-10.2,10.9c-5.9,0.3-11.4-4.4-11.5-10.6s4.5-11,10.4-11.2
	C110.6,334.1,116,339,115.8,345.2z"/>
<path class="st8" d="M190.7,345.1c-0.1-6,4.4-10.7,10.3-10.7c6.3-0.1,11.1,4.5,11.3,10.9c0.2,5.4-5,10.7-10.4,10.7
	C195.5,356.1,190.8,351.6,190.7,345.1z"/>
<path class="st9" d="M126.9,189.8c-0.9-5.1-1.1-10.2-0.7-15.4c0.4-4.7,1.1-9.4,2.7-13.8c2.8-7.6,7.6-13.5,15.7-15.9
	c4.9-1.5,9.7-1,14.3,1.2c3.1,3.8,5.5,7.9,6.8,12.6c1.1,3.7,2.1,7.5,2.6,11.3c0.7,5.4,0.5,10.8-0.2,16.1c-0.2,1.5-0.3,2.9-0.6,4.4
	c-0.1,0.4-0.2,0.9,0.1,1.2c1.8,1.5,0.1,1.3-0.7,1.5c-5.1-0.5-10.2-0.9-15.3-1.2c-3.5-0.2-7.1-0.5-10.6-0.7c-4.5-0.3-9-0.7-13.4-0.9
	C127.2,190.3,126.9,190.2,126.9,189.8z"/>
<path class="st10" d="M182.1,174.4c0.8,4.1,1.8,8.1,2.2,12.3c0,2,0,4,0.1,6.1c0,1-0.3,1.3-1.3,1.2c-3.5-0.3-7-0.5-10.4-0.7
	c-1.8-0.1-3.7-0.3-5.5-0.4c0.3-0.1,0.6-0.2,1.1-0.4c-1.6,0-1.5-0.9-1.4-1.9c0.6-3.6,1-7.3,1.2-11c0.5-7-0.9-13.7-2.8-20.4
	c-1.1-4.1-3.3-7.5-5.4-11.1c-0.4-0.7-0.7-1.4-1.1-2.1c6.6,3.1,11.7,7.9,15.9,13.8c3,4.2,5.2,8.7,6.8,13.5
	C181.8,173.7,182,174,182.1,174.4z"/>
</svg>
