<?xml version="1.0" encoding="utf-8"?>
<!-- Generator: Adobe Illustrator 24.1.2, SVG Export Plug-In . SVG Version: 6.00 Build 0)  -->
<svg version="1.1" id="Calque_1" xmlns="http://www.w3.org/2000/svg" xmlns:xlink="http://www.w3.org/1999/xlink" x="0px" y="0px"
	 viewBox="0 0 211 190" style="enable-background:new 0 0 211 190;" xml:space="preserve">
<style type="text/css">
	.st0{fill:#FEFEFE;}
</style>
<path class="st0" d="M50.2,163.9c0.1-5.2,2.4-9.2,5.8-12.4c7.1-6.6,14.6-12.9,21.9-19.3c11.4-10,22.8-20.1,34.3-30.1
	c3.5-3.1,4.8-6.6,3.6-11.3c-1.2-4.8-1.9-9.7-1.1-14.7c0.8-5.3,4-9.1,7.6-12.4c10-9.3,20.2-18.4,30.4-27.5c4.6-4.2,9.2-3.2,10.4,2.1
	c0.4,1.9-0.1,3.4-1.4,4.8c-6.8,7.2-13.5,14.3-20.2,21.5c-1.1,1.1-2,2.3-3,3.6c-1.7,2.2-1.2,4.3,0.7,6c1.9,1.8,4.1,1.6,5.9-0.1
	c4.5-4.4,9-8.9,13.4-13.4c3.3-3.4,6.5-7,9.9-10.3c3.1-3.1,5.5-3.3,8.1-0.9c2.9,2.6,3,6.1,0.1,9.3C170,65.9,163.5,73,157,80.1
	c-1,1.1-1.9,2.2-2.9,3.3c-1.8,2.1-1.9,4.3,0.1,6.3c2.1,2.1,4,2.2,6.4-0.3c7.4-7.4,14.7-14.9,22-22.4c3.3-3.3,5.5-3.8,8.3-1.7
	c2.4,1.8,3.1,4.8,1.7,7.4c-0.6,1.2-1.4,2.3-2.3,3.3c-9.7,11-19.3,21.9-29.8,32.1c-6.4,6.2-13.7,7.9-22.2,5.2c-1.5-0.5-2.9-1-4.4-1.3
	c-3.8-0.8-7.1,0.2-9.7,3.3c-8.9,10.6-17.9,21.2-26.8,31.8c-6.7,8-13.3,16.1-20.1,24.1c-6,6.9-12.8,8.5-19.5,4.7
	C53.1,173.3,50.7,169,50.2,163.9z"/>
<path class="st0" d="M57.7,90.7c-19.9-7.5-32.1-22-38.1-42.1c-2.2-7.4-2.5-15.1-0.9-22.7c2.7-12.5,13.3-18.3,26.3-15
	c12,3,21.2,10.4,29.3,19.3c6.7,7.4,12,15.7,14.2,25.6c0.2,1.1-0.1,2.3,0.8,3.2c0.3,6.6,0.1,13.2-1.5,19.7c-0.7,2.9,0.8,5.2,2.6,7.2
	c4,4.4,8.4,8.5,13.4,12.3c-3.2,2.2-6.1,4.7-8.7,7.5c-1.4,1.5-2.3,1.5-3.6-0.2c-3.4-4.2-6.8-8.3-10.4-12.3c-2.6-2.9-5.9-3.9-9.9-2.8
	C66.7,91.7,62.2,91.7,57.7,90.7z"/>
<path class="st0" d="M166.1,164.1c0.1,6.3-2.8,10.8-7.6,12.8c-4.7,1.9-9.8,0.9-13.6-3.1c-6.4-6.8-11.7-14.5-17.3-21.9
	c-2.6-3.4-5-6.8-7.5-10.2c-1.8-2.4-2-4.6,0.1-6.9c2.8-3,5.6-6.1,8.3-9.2c1-1.2,1.6-0.7,2.4,0.1c10.4,10.1,20.9,20.1,31.3,30.2
	C164.8,158.3,166.1,161.3,166.1,164.1z"/>
</svg>
