<?xml version="1.0" encoding="utf-8"?>
<!-- Generator: Adobe Illustrator 24.1.2, SVG Export Plug-In . SVG Version: 6.00 Build 0)  -->
<svg version="1.1" id="Calque_1" xmlns="http://www.w3.org/2000/svg" xmlns:xlink="http://www.w3.org/1999/xlink" x="0px" y="0px"
	 viewBox="0 0 1125 290" style="enable-background:new 0 0 1125 290;" xml:space="preserve">
<style type="text/css">
	.st0{fill:#FEFEFE;}
	.st1{fill:#DF001A;}
	.st2{fill:#FADEE1;}
	.st3{fill:#DF021C;}
	.st4{fill:#FDF8F9;}
</style>
<g>
	<path class="st0" d="M10.3,269.8c0-84.4,0-168.8-0.1-253.2c0-5.3,0.5-7.2,6.7-7.1c31.9,0.4,63.8,0.2,95.6,0.2
		c2.5,4.4-0.9,7.6-2.5,11c-15.7,32.6-30.5,65.6-44.1,99.1c-3,7.4-2.7,6.5,4.8,7.9c17.1,3,28.1-6.7,39.1-16.8c3.3-3.1,6.8-6,10.3-8.8
		c5.5-4.4,9.5-9.7,11.9-16.6c3.6-10,7.4-20,12-29.5c1-2.1,2-4.8,4.9-4.5c2.7,0.2,3.7,2.8,4.8,4.9c6.1,12,6.2,12.1,17,3.9
		c6.8-5.2,13.7-10.2,21.7-13.2c4.7-1.7,5.3-4.4,3.2-8.6c-3.5-6.9-7.1-13.7-9.8-21c-0.9-2.4-2.8-4.7-1.5-7.5c308,0,616.1,0,924.1-0.1
		c6,0,7.4,1.3,7.3,7.3c-0.3,47.6-0.2,95.2-0.2,142.8c-1,0.5-1.8,0.3-2.5-0.6c-1.6-2.5-2.1-5.5-2.6-8.3
		c-4.8-29.1-24.1-40.2-53.6-39.4c-15.9,0.4-30.9,4.6-43.5,15.4c-5.7,4.9-8.8,3.8-10.2-3.9c-1.3-7.1-5.1-9.1-11.7-8.7
		c-6.4,0.3-12.8,0.2-19.1,0.1c-5.3-0.1-7.8,2.2-7.7,7.6c0.1,5.3,0,10.6,0,15.9c0,40.7,0,81.3,0,122c0,10.4,0.5,10.9,10.7,10.9
		c8.5,0.1,17,0.1,25.5,0c9.4-0.1,10-0.7,10.1-9.9c0.1-28.4,0-56.9,0-85.3c0-17.9,9.1-27,27.5-27.3c15.8-0.3,26.5,10.4,26.7,27.3
		c0.3,27.9,0.1,55.8,0.1,83.7c0,11.2,0.3,11.4,11.7,11.5c12,0,23.9,0,35.9-0.1c1,0,1.9,0.3,2.7,0.9c1.2,5.5-0.9,6.5-6.4,6.5
		c-364.2-0.2-728.4-0.1-1092.6-0.2c-3.2,0-7.9,1.6-6.4-4.8c2.9-2.6,6.4-2.2,9.9-2.2c13.8-0.1,27.7-0.3,41.5,0.1
		c7.3,0.2,11.3-2.4,13.2-9.7c3.8-14.4,9-28.4,13.3-42.7c2.4-8,2-8.6-6.5-8.7c-12.5-0.1-25,0.4-37.5-0.2c-7.8-0.3-11.6,3.1-13.9,10.1
		c-4.6,14.2-9.3,28.3-14.2,42.4C14.9,265.2,14.8,269.3,10.3,269.8z"/>
	<path class="st1" d="M184.4,9.7c4.9,10.6,9.8,21.1,14.6,31.7c0.9,2,3.1,4.2-1.1,5.4c-14.5,4.2-25.2,14.4-36.7,23.3
		c-0.8,0.6-1.8,1-3,1.7c-3-7-6-13.7-9.4-21.5c-6.6,12.7-11.1,24.9-15.5,37.2c-2.1,6-5.2,10.8-10.3,14.6c-5.7,4.3-11.9,8.4-16.4,13.9
		c-12.6,15.2-29,15.2-47.2,12.8C70.4,103.8,81.1,79,92,54.4c6.6-15,13.7-29.8,20.5-44.7C136.5,9.7,160.4,9.7,184.4,9.7z"/>
	<path class="st1" d="M10.3,269.8c6.4-18.1,13.1-36.2,19-54.5c2-6.1,4.9-8,11.3-7.8c15.7,0.5,31.4,0.2,47.1,0.1
		c3.9,0,6.6-0.3,4.7,5.4c-6.1,18.1-11.7,36.3-17.2,54.6c-1.3,4.2-3.6,5-7.5,5c-19.1,0-38.3,0.2-57.4,0.4
		C10.3,272,10.3,270.9,10.3,269.8z"/>
	<path class="st2" d="M1115.7,271.4l-0.7,0.1l-0.7,0c-3.1-2.9-2.7-6.8-2.7-10.4c-0.1-30.3-0.1-60.6,0-90.9c0-3.6-0.4-7.6,2.8-10.4
		c0.5,0,0.9,0,1.4,0C1115.7,197,1115.7,234.2,1115.7,271.4z"/>
	<path class="st1" d="M664.7,122.4c19-12.4,38.3-14.8,58.7-12.3c22.6,2.8,37.5,17.5,40.9,40.2c2.4,16.1,1.2,32.4,1.4,48.6
		c0.2,22.3-0.2,44.7,0.2,67c0.1,5.8-1.7,7.1-7.2,7c-12.8-0.4-25.5-0.5-38.3,0c-6.5,0.2-8.6-1.4-8.5-8.2c0.4-29.5,0-59,0.2-88.5
		c0.1-10.3-1.9-19.2-12.3-23.6c-9.6-4.1-25.6-0.6-32.9,6.5c-2.8,2.7-2.1,5.8-2.1,8.9c0,32.4-0.2,64.9,0.1,97.3
		c0,5.8-1.3,7.9-7.5,7.7c-12.5-0.5-25-0.3-37.5-0.1c-4.9,0.1-7.1-0.8-7.1-6.4c0.2-68.8,0.2-137.7,0-206.5c0-5,1.6-6.3,6.4-6.2
		c13,0.3,26.1,0.3,39.1,0c5.6-0.2,6.5,2.1,6.5,7C664.6,80.6,664.7,100.7,664.7,122.4z"/>
	<path class="st1" d="M196.2,145.7c-4.3,5.3-8.4,10.9-13,16c-21,23.1-48.1,32.3-78.5,32.8c-20,0.3-39.9,0.1-59.9,0
		c-1.9,0-4.7,1.2-5.6-1.4c-0.7-2,1.5-3.2,2.7-4.5c4-4.3,8-8.5,12.6-13.4c-4.9-1-9.2-1.5-13.3-2.7c-12.6-3.6-21-11.9-26.3-23.7
		c-2.1-4.7-0.9-6,4-6c20.8,0.1,41.5-0.2,62.3,0.2c9.9,0.2,17.9-2.8,25.4-9.2c25.8-21.8,51.4-43.7,77.9-64.7
		c21-16.6,50.6-17.7,68.1,3c3.6,4.3,8.4,2,12.7,2.4c4.2,0.4,8.5,0.1,13.4,0.1c-1.9,5.4-6.6,6-10.1,7.2c-9.1,3-12.9,8.6-14.4,18.2
		c-2.8,18.3-8.5,36-15.5,53.3c-13.4,33.1-38.6,49.4-73.4,52.4c-2.1,0.2-4.2,0.3-7.2,0.6c7.7,22.1,15.3,43.7,22.9,65.5
		c-13.2,1.9-13.2,1.9-17.4-9.8c-6.6-18.5-12.8-37.1-19.8-55.4c-2.3-6.1-1.7-8.5,4.6-10.9C171.9,186.5,186.8,168.5,196.2,145.7z"/>
	<path class="st1" d="M891.3,255.5c-17.1,18.9-38,22-60.5,19.2c-18.9-2.3-32.9-12.1-39.5-30.2c-11.3-31.1-11.5-62.7,0.9-93.3
		c11.6-29,35.9-40.8,65.7-41.9c23.4-0.9,46.7,1.1,69.5,7.2c5.7,1.5,8,3.7,7.9,10.1c-0.3,46.2-0.3,92.5,0,138.7
		c0,6.1-1.7,7.7-7.6,7.4c-8.5-0.5-17.1-0.7-25.5,0c-6.9,0.6-9.7-1.8-9.8-8.4C892.4,262,891.9,259.6,891.3,255.5z"/>
	<path class="st1" d="M395.4,255.3c-18.9,18.5-41,22.3-65,19.5c-24.3-2.7-39-17.2-42.1-41.5c-0.9-6.8-1.2-13.8-1.2-20.7
		c-0.1-31.1,0.1-62.2-0.2-93.3c0-5.4,1.3-7.5,7.1-7.3c12.8,0.4,25.5,0.5,38.3,0c6.5-0.2,8.6,1.4,8.5,8.2
		c-0.4,29.2-0.1,58.5-0.2,87.7c0,10,1,19.5,11.7,24c12,5,22.8,1.7,32.9-5.6c3.3-2.4,3.3-5.7,3.2-9.2c-0.1-32.4,0.2-64.8-0.2-97.3
		c-0.1-6.5,1.9-8,8.1-7.8c13.3,0.4,26.6,0.3,39.9,0.1c4.1-0.1,5.5,1.1,5.5,5.3c-0.1,50-0.1,99.9,0,149.9c0,4.5-1.8,5.2-5.7,5.2
		c-10.4-0.2-20.8-0.3-31.1,0c-4.8,0.2-6.6-1.6-7-6.2C397.6,263.2,396.5,259.9,395.4,255.3z"/>
	<path class="st1" d="M1114.3,159.7c0,37.3,0,74.5-0.1,111.8c-16.1,2.4-32.2,0.7-48.3,1c-4.8,0.1-2.8-4.4-2.8-6.8
		c-0.1-29-0.2-58,0-87c0.1-10.5-0.8-20.7-11.9-25.6c-12.4-5.5-23.8-2-34.5,5.2c-3.5,2.4-3.2,5.8-3.2,9.2c0,32.4-0.2,64.9,0.2,97.3
		c0.1,6.3-1.6,8.1-7.9,7.9c-12.5-0.5-25-0.3-37.5-0.1c-4.1,0.1-6.2-0.5-6.2-5.5c0.2-49.7,0.2-99.5,0-149.2c0-4.7,1.7-5.8,6-5.7
		c9.3,0.3,18.7,0.5,27.9-0.1c6.1-0.4,8.5,1.9,9.2,7.6c0.4,3-0.1,6.5,2.6,9.3c17.8-18.1,40-21.8,63.9-19.1
		c23.1,2.6,36.6,15.2,41,37.9C1113.3,151.8,1113.7,155.8,1114.3,159.7z"/>
	<path class="st1" d="M586.4,163.1c-10.7-6-21.4-9.5-33.1-9.7c-28.6-0.3-44.4,18.3-39.4,46.6c3.9,22.5,21.6,34.5,45.8,31
		c8.5-1.2,16.7-3.5,24.2-7.6c3.9-2.1,6.1-3.1,6.9,3.1c1.2,10,3.5,19.8,5.5,29.7c0.7,3.5,0.4,5.9-3.5,7.6
		c-29.8,13-60.4,16.6-91.5,5.6c-19-6.7-31-21.1-36.8-40.2c-7.1-23.4-7.3-47.2-0.3-70.7c9.1-30.4,32.1-46.9,68.7-49.2
		c18.2-1.2,36,1.1,53.3,7.3c5.5,2,8,4,6.3,10.8C589.7,138.7,588.5,150.4,586.4,163.1z"/>
	<path class="st1" d="M247.5,168.3c13,33.1,25.2,65,36.1,97.4c2,5.9,0.9,7.2-5.1,7c-16.2-0.3-32.5-0.3-48.7,0
		c-4.6,0.1-7.1-1.1-8.6-5.8c-5.5-16.3-11.3-32.5-17.2-48.7c-1.5-4.1-2.1-6.6,3.1-9.1c15.6-7.3,27.2-19.2,36-33.9
		C244.4,173.3,245.6,171.3,247.5,168.3z"/>
	<path class="st3" d="M176.5,219.2c2-0.4,3.1-0.4,4-0.8c6.5-2.7,9.8-1,12,6.1c4.2,13.7,9.5,27,14.1,40.5c0.7,2.2,4.5,6.2,0,7
		c-4,0.7-10.2,3.7-12.7-3.8C188.2,252.1,182.4,235.9,176.5,219.2z"/>
	<path class="st4" d="M225.8,75.5c-4.2,3.7-7.3,7.3-3.1,11.9c4.2,4.6,8,1.3,11.7-1.6c-0.4,8-4.5,12.7-10.9,12.7
		c-6.2,0-11.7-5.4-11.8-11.6C211.5,80.2,216.4,76,225.8,75.5z"/>
	<path class="st0" d="M883.8,188.3c0,10.1-0.2,20.2,0.1,30.3c0.1,3.6-1.1,6.1-3.9,8.1c-8.5,6.2-17.7,10.2-28.3,6.3
		c-9.7-3.6-12.3-12.5-14-21.6c-2.4-13.3-1.8-26.5,1.5-39.5c4.2-16.9,12.6-22.7,30-21.4c14.6,1.1,14.6,1.1,14.6,15.5
		C883.8,173.4,883.8,180.9,883.8,188.3z"/>
</g>
</svg>
