<?xml version="1.0" encoding="utf-8"?>
<!-- Generator: Adobe Illustrator 24.1.2, SVG Export Plug-In . SVG Version: 6.00 Build 0)  -->
<svg version="1.1" id="Calque_1" xmlns:serif="http://www.serif.com/"
	 xmlns="http://www.w3.org/2000/svg" xmlns:xlink="http://www.w3.org/1999/xlink" x="0px" y="0px" viewBox="0 0 1535 487"
	 style="enable-background:new 0 0 1535 487;" xml:space="preserve">
<style type="text/css">
	.st0{fill:#0032A0;}
	.st1{fill-rule:evenodd;clip-rule:evenodd;fill:#0032A0;}
	.st2{fill:#FFBB08;}
	.st3{fill:#A9D035;}
</style>
<g transform="matrix(12.3652,0,0,12.3652,220.403,580.952)">
	<path class="st0" d="M-15.2-12.7h-0.9v3.7l2.5,0l0-0.9l-1.6,0.1V-12.7z"/>
</g>
<g transform="matrix(12.3652,0,0,12.3652,282.005,581.471)">
	<path class="st0" d="M-15.2-12.8l-1.5,3.6l1,0.1l0.2-0.7h1.5l0.2,0.7l1-0.1l-1.5-3.6H-15.2z M-15.2-10.4l0.5-1.4l0.5,1.4H-15.2z"/>
</g>
<g transform="matrix(12.3652,0,0,12.3652,404.964,556.279)">
	<path class="st0" d="M-15.2-8.8c0.3-0.2,0.5-0.5,0.5-0.9c0-0.8-0.7-1.1-1.6-1.1c-0.4,0-1.2,0.1-1.5,0.4v3.4C-17.4-7-16.6-7-16-7
		c0.9,0,1.4-0.3,1.4-1C-14.6-8.4-14.9-8.6-15.2-8.8 M-17-9.9c0.1-0.1,0.4-0.2,0.6-0.2c0.4,0,0.7,0.2,0.7,0.5c0,0.2-0.1,0.5-0.3,0.6
		h-1V-9.9z M-16.1-7.7c-0.3,0-0.8,0-0.9,0v-0.5h0.8c0.4,0,0.6,0.1,0.6,0.3C-15.5-7.8-15.7-7.7-16.1-7.7"/>
</g>
<g transform="matrix(12.3652,0,0,12.3652,-1453.85,13.3025)">
	<rect x="138" y="33.2" class="st1" width="0.9" height="3.7"/>
</g>
<g transform="matrix(12.3652,0,0,12.3652,501.422,581.732)">
	<path class="st0" d="M-15.2-12.9c-1.2,0-1.8,0.7-1.8,1.8c0,1.3,0.7,2.1,1.8,2.1c1.2,0,1.8-0.9,1.8-2S-14-12.9-15.2-12.9 M-15.2-9.8
		c-0.6,0-0.9-0.6-0.9-1.2c0-0.7,0.3-1,0.9-1s0.9,0.4,0.9,1C-14.3-10.4-14.6-9.8-15.2-9.8"/>
</g>
<g transform="matrix(12.3652,0,0,12.3652,616.394,550.948)">
	<path class="st0" d="M-15.2-7.9l-1.5-2.5l-0.9,0.1v3.7h0.9V-9l1.5,2.5l0.8-0.1v-3.7h-0.9V-7.9z"/>
</g>
<g transform="matrix(12.3652,0,0,12.3652,677.293,581.732)">
	<path class="st0" d="M-15.2-12.9c-1.2,0-1.8,0.7-1.8,1.8c0,1.3,0.7,2.1,1.8,2.1c1.2,0,1.8-0.9,1.8-2S-14-12.9-15.2-12.9 M-15.2-9.8
		c-0.6,0-0.9-0.6-0.9-1.2c0-0.7,0.3-1,0.9-1c0.6,0,0.9,0.4,0.9,1C-14.3-10.4-14.6-9.8-15.2-9.8"/>
</g>
<g transform="matrix(12.3652,0,0,12.3652,756.127,558.631)">
	<path class="st0" d="M-15.2-9c0,0.8-0.1,1.1-0.7,1.1c-0.5,0-0.8-0.3-0.8-1.1v-1.9h-0.9v1.8c0,1.3,0.4,1.9,1.6,1.9
		c1.2,0,1.6-0.6,1.6-1.9v-1.8h-0.9V-9z"/>
</g>
<g transform="matrix(12.3652,0,0,12.3652,817.49,558.876)">
	<path class="st0" d="M-15.2-9.2l-0.3,0c-0.5-0.1-0.7-0.2-0.7-0.5c0-0.3,0.2-0.5,0.7-0.5c0.3,0,0.5,0.1,0.6,0.3h1
		c-0.1-0.6-0.6-1-1.5-1c-1.1,0-1.6,0.6-1.6,1.4c0,0.7,0.5,1,1.3,1.2l0.2,0c0.6,0.1,0.8,0.2,0.8,0.4c0,0.2-0.2,0.2-0.6,0.2
		c-0.5,0-1.1-0.2-1.5-0.5l-0.2,0.8c0.4,0.2,1.1,0.5,1.7,0.5c1,0,1.5-0.3,1.5-1C-13.9-8.7-14.2-9-15.2-9.2"/>
</g>
<g transform="matrix(12.3652,0,0,12.3652,935.419,565.667)">
	<path class="st0" d="M-15.2-10.2c0-0.8-0.6-1.3-1.7-1.3c-0.5,0-1.1,0.2-1.4,0.3v3.4h0.9v-0.9h0.8l0.7,1.1l0.7-0.5l-0.7-0.7
		C-15.5-9.2-15.2-9.6-15.2-10.2 M-16.5-9.4h-1v-1.2c0.1-0.1,0.4-0.1,0.7-0.1c0.5,0,0.8,0.3,0.8,0.6C-16.1-9.8-16.3-9.6-16.5-9.4"/>
</g>
<g transform="matrix(12.3652,0,0,12.3652,976.31,581.471)">
	<path class="st0" d="M-15.2-12.8l-1.5,3.6l1,0.1l0.2-0.7h1.5l0.2,0.7l1-0.1l-1.5-3.6H-15.2z M-15.2-10.4l0.5-1.4l0.5,1.4H-15.2z"/>
</g>
<g transform="matrix(12.3652,0,0,12.3652,1053.48,558.876)">
	<path class="st0" d="M-15.2-9.2l-0.3,0c-0.5-0.1-0.7-0.2-0.7-0.5c0-0.3,0.2-0.5,0.7-0.5c0.3,0,0.5,0.1,0.6,0.3h1
		c-0.1-0.6-0.6-1-1.5-1c-1.1,0-1.6,0.6-1.6,1.4c0,0.7,0.5,1,1.3,1.2l0.2,0c0.6,0.1,0.8,0.2,0.8,0.4c0,0.2-0.2,0.2-0.6,0.2
		c-0.5,0-1.1-0.2-1.5-0.5l-0.2,0.8c0.4,0.2,1.1,0.5,1.7,0.5c1,0,1.5-0.3,1.5-1C-13.9-8.7-14.2-9-15.2-9.2"/>
</g>
<g transform="matrix(12.3652,0,0,12.3652,1118.87,558.876)">
	<path class="st0" d="M-15.2-9.2l-0.3,0c-0.5-0.1-0.7-0.2-0.7-0.5c0-0.3,0.2-0.5,0.6-0.5c0.3,0,0.5,0.1,0.6,0.3h1
		c-0.1-0.6-0.6-1-1.5-1c-1.1,0-1.6,0.6-1.6,1.4c0,0.7,0.5,1,1.3,1.2l0.2,0c0.6,0.1,0.8,0.2,0.8,0.4c0,0.2-0.2,0.2-0.6,0.2
		c-0.5,0-1.1-0.2-1.5-0.5l-0.2,0.8c0.4,0.2,1.1,0.5,1.7,0.5c1,0,1.5-0.3,1.5-1C-13.9-8.7-14.2-9-15.2-9.2"/>
</g>
<g transform="matrix(12.3652,0,0,12.3652,1172.97,551.201)">
	<path class="st0" d="M-15.2-7.9h1.5v-0.7h-1.5v-0.9l1.8,0v-0.9l-2.7,0.1v3.7l2.7,0.1l0.1-0.9l-1.9,0V-7.9z"/>
</g>
<g transform="matrix(12.3652,0,0,12.3652,1248.34,553.644)">
	<path class="st0" d="M-15.2-8.4l-0.9-2.2l-1,0.1v3.6h0.9v-2.6l0.7,1.9l0.9,0l0.7-1.9v2.6h0.9v-3.6l-1-0.1L-15.2-8.4z"/>
</g>
<g transform="matrix(12.3652,0,0,12.3652,1334.31,556.279)">
	<path class="st0" d="M-15.2-8.8c0.3-0.2,0.5-0.5,0.5-0.9c0-0.8-0.7-1.1-1.6-1.1c-0.4,0-1.2,0.1-1.5,0.4v3.4C-17.4-7-16.6-7-16-7
		c0.9,0,1.4-0.3,1.4-1C-14.6-8.4-14.9-8.6-15.2-8.8 M-17-9.9c0.1-0.1,0.4-0.2,0.6-0.2c0.4,0,0.7,0.2,0.7,0.5c0,0.2-0.1,0.5-0.3,0.6
		h-1V-9.9z M-16.1-7.7c-0.3,0-0.8,0-0.9,0v-0.5h0.8c0.4,0,0.6,0.1,0.6,0.3C-15.5-7.8-15.7-7.7-16.1-7.7"/>
</g>
<g transform="matrix(12.3652,0,0,12.3652,1380.42,580.952)">
	<path class="st0" d="M-15.2-12.7h-0.9v3.7l2.5,0l0-0.9l-1.6,0.1V-12.7z"/>
</g>
<g transform="matrix(12.3652,0,0,12.3652,1438.23,544.296)">
	<path class="st0" d="M-15.2-6.8v-0.6h1.5v-0.7h-1.5V-9l1.8,0v-0.9l-2.7,0.1v3.7l2.7,0.1l0.1-0.9L-15.2-6.8z"/>
</g>
<g transform="matrix(12.3652,0,0,12.3652,988.913,355.385)">
	<path class="st0" d="M-15.2-8.5c0.3-0.8,0.5-1.9,0.5-3c0-3.4-2.5-6.4-7.4-6.4c-5.6,0-9,3.6-8.8,9.6c0.1,5.9,3.7,8.4,8.7,8.5
		c3.4,0.1,6.7-1.2,7.2-1.6l-0.3-4.2c-0.6,0.4-3.7,1.3-6.3,1.3c-2.6,0-4.1-1.4-4.1-4.6c0-3.1,1.4-4.7,3.5-4.7c2,0,2.8,1.4,2.8,2.8
		c0,0.9-0.3,1.7-0.6,2.2H-15.2z"/>
</g>
<g transform="matrix(12.3652,0,0,12.3652,1636.67,586.871)">
	<path class="st0" d="M-15.2-36.5c-2.4,0-4.3,1.4-5.2,3.4c-0.1-1.1-0.3-2-0.5-2.8h-4.9c0.4,1.5,0.6,3.6,0.6,5.9v18.6
		c0,1.3,1.1,2.4,2.4,2.4s2.4-1.1,2.4-2.4v-2.1h0v-6.7c1.1,1.1,2.5,1.8,4.2,1.8c4.5,0.1,7.2-4.3,7.1-10.2
		C-9-33.8-11.4-36.5-15.2-36.5 M-17.6-22.6c-1.1,0-2-0.5-2.7-1.3v-2.6c0-3.6,1.2-5.9,3.4-5.9c2,0,3.1,1.5,3.1,4.4
		C-13.7-24.4-15.4-22.5-17.6-22.6"/>
</g>
<g transform="matrix(12.3652,0,0,12.3652,333.169,352.097)">
	<path class="st0" d="M-15.2-17.3c-2.2,0-4.1,1.2-5.1,2.9v-8.1l0,0l0,0v-2c0-1.3-1.1-2.4-2.4-2.4c-1.3,0-2.4,1.1-2.4,2.4v23
		c1.6,1.1,5.1,2,8.1,2c4.5,0,8.3-3.2,8.3-10.1C-8.8-14.7-11.2-17.3-15.2-17.3 M-17.7-3.6c-1.1,0-2-0.3-2.6-0.7v-3.8
		c0-3.3,1.6-4.9,3.6-4.9c2.1,0,3.1,1.3,3.1,3.9C-13.6-5.9-15.1-3.6-17.7-3.6"/>
</g>
<g transform="matrix(12.3652,0,0,12.3652,454.998,255.346)">
	<path class="st0" d="M-15.2,7.8h4.8V-9l-4.8,0.3V7.8z"/>
</g>
<g transform="matrix(12.3652,0,0,12.3652,658.495,468.26)">
	<path class="st0" d="M-15.2-27.1c-5.4,0-8.5,3.1-8.5,8.3c0,5.1,3,9.7,8.6,9.7c5.5,0,8.5-4.6,8.5-9.8C-6.6-24-9.7-27.1-15.2-27.1
		 M-15.2-13.1c-2.2,0-3.7-2.3-3.7-5.5c0-3.1,1.5-4.4,3.7-4.4c2.2,0,3.7,1.3,3.7,4.3C-11.5-15.5-12.9-13.1-15.2-13.1"/>
</g>
<g transform="matrix(-7.54521,-9.79636,-9.79636,7.54521,449.069,202.726)">
	<path class="st0" d="M15.5,1.5c0.8,0.2,1.6,0.7,2,1.5c0.7,1.5-0.3,3.7-2,3.8c-2.7,0.2-4.6-3.8-1.9-5.2C14.2,1.2,14.7,1.2,15.5,1.5"
		/>
</g>
<g transform="matrix(12.3652,0,0,12.3652,1231.38,302.442)">
	<path class="st2" d="M-15.2-1.2C-15-2.8-14.6-4.4-15-6c-1-4.9-4-8.8-9.8-7.8c-5.8,1-8,5.9-7,10.9c0.1,0.5,0.2,1.1,0.4,1.6
		c0.7-0.1,1.7-0.2,1.8-0.8c0.5-1.9,2-5.1,2.1-5.4c0.1-0.2,0.6-0.7,0.9-0.4c0.3,0.4,0.3,0.2,0.3,1.1c0,0.1-0.5,2.2-0.5,2.2
		c0.3-0.4,1.2-1.9,2-2.8c0.9-1,2.2-2.3,3-2.8c0.3-0.2,0.5,0,0.6,0.1c0.7,0.4-2,2.9-2.7,3.8C-24.2-6.1-23.9-6-23.8-6
		c0.1,0,0.3-0.1,0.8-0.7c0.4-0.4,2.1-2.4,3.1-3c0.2-0.1,0.3,0,0.5,0.1c0.6,0.4-2.1,3-3.2,4.2c-0.3,0.3-0.5,0.5-0.5,0.6
		c0,0,0,0.7,0.4,0.3c0.9-0.8,2.6-3.1,2.9-3.4c0.4-0.3,0.5-0.1,0.6,0.1c0.3,0.4-0.8,2.1-1.8,2.9c-0.9,0.8-1.4,1.1-1.2,1.2
		c0.1,0.1,0.1,0.4,0.4,0.2c0.5-0.4,1.5-1.5,2.1-1.9c0.2-0.1,0.3,0.1,0.4,0.2c0.4,0.6-2.5,4.1-4.6,5.8c-1.3,1-3.2,1.7-4.7,2.2
		c1.9,1.4,5.2,1.7,8.3,1.1c2.6-0.5,5-1.7,6.6-2.7C-14,1.2-15.4,0.6-15.2-1.2"/>
</g>
<g transform="matrix(12.3652,0,0,12.3652,1442.69,443.274)">
	<path class="st3" d="M-15.2-23c-1.7-1.5-3.9-1.7-6.1-2c-2.5-0.3-8.2,0.5-8.2,0.5s1,1.7,0.6,3.1c-0.4,1.6-0.9,3.1-0.9,4.7
		c0,5.2,3,9.8,8.6,9.8c0.1,0,0.2,0,0.3,0c-0.6-2.4,0-4.6,0.7-6.3c-1.7-0.4-5.7-1.9-5-7.3c0.1-0.7,0.4-0.6,0.9-0.5
		c0.6,0.2,1.4,0.5,2.2,1c0.9,0.6,1.9,1.3,2.5,2.3c0.8,1.4-0.3,2.2-0.3,3.1c0,0.3,0.2,0.5,0.4,0.7c0.3-0.9,1.1-1.8,2.8-2.1
		c0.2,0,0.6,0.1,0.5,0.4c-0.4,1.1-1.4,3.8-3.5,3.4c-0.3,1.4-0.4,3.2,0.3,5.1c4.4-0.9,6.8-5.1,6.8-9.6C-12.7-19-13.4-21.4-15.2-23"/>
</g>
</svg>
