<?xml version="1.0" encoding="utf-8"?>
<!-- Generator: Adobe Illustrator 24.1.2, SVG Export Plug-In . SVG Version: 6.00 Build 0)  -->
<svg version="1.1" id="Calque_1" xmlns="http://www.w3.org/2000/svg" xmlns:xlink="http://www.w3.org/1999/xlink" x="0px" y="0px"
	 viewBox="0 0 546 365" style="enable-background:new 0 0 546 365;" xml:space="preserve">
<style type="text/css">
	.st0{fill:#FEC811;}
	.st1{fill:#3D7B69;}
	.st2{fill:#F05F26;}
	.st3{fill:#368371;}
	.st4{fill:#3F8EC1;}
	.st5{fill:#378371;}
	.st6{fill:#4EBEE0;}
	.st7{fill:#3E8FC1;}
	.st8{fill:#378472;}
	.st9{fill:#3E8EC1;}
	.st10{fill:#338270;}
	.st11{fill:#FEC812;}
	.st12{fill:#32816F;}
	.st13{fill:#348270;}
	.st14{fill:#358371;}
	.st15{fill:#33816F;}
	.st16{fill:#368471;}
	.st17{fill:#33826F;}
	.st18{fill:#237864;}
	.st19{fill:#EF5215;}
	.st20{fill:#257966;}
	.st21{fill:#246B55;}
	.st22{fill:#16705B;}
	.st23{fill:#156F5B;}
	.st24{fill:#378372;}
	.st25{fill:#146E5A;}
	.st26{fill:#17705C;}
	.st27{fill:#126D5A;}
	.st28{fill:#277B68;}
	.st29{fill:#17715C;}
	.st30{fill:#2F7F6D;}
	.st31{fill:#FDFDFD;}
	.st32{fill:#FDFEFE;}
	.st33{fill:#FAFBFB;}
	.st34{fill:#F6F9F8;}
	.st35{fill:#FCFDFD;}
	.st36{fill:#E5EEEC;}
	.st37{fill:#E0EBE9;}
	.st38{fill:#E5EFEC;}
</style>
<g>
	<path class="st0" d="M171.2,130.5c0.3,8,0.2,15.6-4.5,22c-7.8,10.5-17.8,17.9-31.4,18.7c-14.3,0.9-27.2-3.5-38.9-11.6
		c-4-2.8-6.9-6.1-7.6-11.2c-0.3-1.7-0.9-3.7-2-5c-6.3-8-4.1-16.9-2.3-25.5c0.8-3.9,0.3-8,3-11.8c8.4-12.2,20-18.3,34.3-20.5
		c5.4-0.9,10.4-0.6,15.5,1.5c3.7,1.5,7.5,2.6,11.4,3.7c2.4,0.7,4.1,1.9,5.4,4c0.9,1.5,2.2,3.2,3.7,3.9c11.9,6,13.6,16.7,13.5,28.3
		C171.4,128.3,171.3,129.6,171.2,130.5z"/>
	<path class="st1" d="M112.2,252.5c5.6-11,15-18.1,24.9-24.7c17.7-11.9,37.8-17,58.5-20.3c7.9-1.2,15.8-2.6,23.6-4.2
		c2.9-0.6,3.8,0.1,3.8,3.1c-0.1,16,0,32,0,48c-1.2,0.8-2.6,0.5-3.9,0.5c-33.9,0-67.8,0-101.8,0C115.3,254.9,112.7,255.9,112.2,252.5
		z"/>
	<path class="st2" d="M45.1,212.6c22.7,1.6,44.9,5.7,65,17.2c7.5,4.3,7.8,5.1,2.9,12.1c-3.2,4.6-5.6,9.8-10,13.5
		c-1.8-0.7-3.6-0.4-5.4-0.4c-21.4,0-42.8-0.1-64.2,0.1c-3.8,0-5.4-0.8-5.3-4.9c0.2-10.8,0.2-21.6,0-32.4c-0.1-3.8,1.2-5.4,5.2-5.3
		C37.2,212.4,41.1,213.1,45.1,212.6z"/>
	<path class="st3" d="M403.4,108.8c7.8-24.4,14.5-47.9,20.4-71.6c1.2-4.9,2.8-7.1,8.4-6.8c9.1,0.6,9.2,0.1,6.7,9
		c-8.1,29-16.8,57.8-26.8,86.2c-1.4,4.1-3.4,5.2-7.4,5.1c-8.6-0.3-8.6,0-11.7-8.2c-10.7-28.7-19.9-57.8-28.4-87.2
		c-0.9-3.2-0.9-4.3,2.9-4.3c12-0.1,12-0.3,15.4,11.3c6,20.9,11.8,41.9,18.9,62.5C402.2,105.7,402.7,106.8,403.4,108.8z"/>
	<path class="st3" d="M305.6,175.5c-4.7-2.6-9.2-4.6-14.1-5.4c-11-1.9-20.7,2.4-25.3,12.5c-7.2,15.8-6.9,32.2,0.3,47.9
		c5.6,12,19.7,15.7,33.8,9.9c7.1-2.9,7.1-2.9,9.2,4.7c2.2,7.9,2.2,8-5.7,10.9c-8.6,3.2-17.5,4.2-26.5,2.5
		c-11.9-2.2-20.4-9.2-25-20.1c-8.8-20.7-9.6-41.8-0.3-62.5c9.4-20.9,31.7-28.4,52.5-18.6c3.9,1.8,6.5,3.6,4,8.5
		C307,168.6,306.6,172,305.6,175.5z"/>
	<path class="st3" d="M521.9,213.1c0.2,9.4,0.2,9.4-8.2,9.5c-9.5,0.1-19,0.2-28.5,0.1c-3.2,0-4.4,0.4-3.6,4.1
		c2.2,10,7.8,14.9,18.1,15c4,0,8.2,0,11.7-1.8c4.9-2.5,5.2-0.1,5.6,3.8c1.1,10.4,1.3,10.4-8.9,12.5c-22.7,4.8-38.3-6.3-41.2-29.4
		c-1.6-12.1-0.8-24,5.1-35c3.9-7.4,9.7-12.7,18.1-14.4c12.3-2.4,22.9,3.3,27.8,15c1.1,2.6,1.9,5.3,2.5,8.1
		C521.5,205,522.1,209.5,521.9,213.1z"/>
	<path class="st3" d="M467,93.7c0.1-10.8,1.6-19.6,6.4-27.5c5.6-9.3,13.7-14.4,24.9-13.3c10.9,1.1,17.2,7.8,20.7,17.7
		c2.8,7.8,3,15.9,3,24.1c0,3.1-1.8,2.9-3.9,2.9c-10.6,0-21.3,0.3-31.9,0.1c-4.3-0.1-4.6,1.5-3.7,5c2.2,8.9,7.9,13.7,17,14
		c3.5,0.1,6.9-0.6,10.4-1.2c2.3-0.4,5.5-3.4,6.5-1.1c1.6,3.8,2.1,8.3,1.6,12.7c-0.1,0.6-1.4,1.2-2.3,1.6c-8.8,3.4-17.8,4.6-26.9,1.9
		c-10.8-3.2-16.4-11.4-19.4-21.6C467.6,103.3,466.9,97.7,467,93.7z"/>
	<path class="st4" d="M54.4,32.6c7.2,0,14.3,0,21.5,0c4.9,0,8.8,3.1,8.9,7.9C85,52.4,85.9,64.2,86.9,76c0.3,3.2-1.1,3.7-3.8,3.3
		c-13.3-2.3-26.6-4.1-40-5.5c-0.3,0-0.7-0.1-1-0.1c-14.2-2.3-14.8-3-14.8-17c0-6.5,0.2-13-0.1-19.5c-0.1-3.4,0.7-4.7,4.4-4.5
		C39.1,32.8,46.8,32.6,54.4,32.6z"/>
	<path class="st5" d="M394.1,254.5c-9.6,3.1-19.5,4-29.5,2.9c-9.8-1.1-15.6-6.6-17.9-16.1c-5.1-21,8.7-35.4,30.5-31.4
		c4.9,0.9,4.8-0.9,4.4-4.4c-1.1-9.5-5.9-13.5-15.5-12.6c-4.3,0.4-8.5,1.2-12.8,2.9c-0.3-2-0.6-3.6-0.8-5.2
		c-1.5-10.1-1.5-10.1,8.6-11.9c2.9-0.5,6-0.8,8.9-0.8c15.7-0.2,24.8,8.8,24.9,24.6c-1.1,4.3-0.1,8.5,0,12.8
		c0.2,11.5,0,22.9,0.1,34.4C395,251.4,394.4,252.9,394.1,254.5z"/>
	<path class="st3" d="M347,129.6c-10.3,3.2-20.8,4.2-31.4,2c-6.5-1.3-11-5.4-13.3-11.6c-2.5-6.6-2.7-13.4-0.8-20.1
		c2.1-7.3,7.1-11.9,14.4-13.8c4.4-1.1,8.8-1.6,13.3-1c7.4,1,7.4,0.9,6-6.4c-1.3-6.8-5.2-9.9-12.1-10.1c-4.4-0.1-8.6,0.6-12.7,2.1
		c-2.1,0.7-3.1,0.5-3.2-1.8c0-1-0.2-2-0.3-3c-1.1-9.4-1.1-9.5,8.4-11.1c2.6-0.5,5.3-0.8,7.9-0.9c16.8-0.5,26,8.8,25.7,25.7
		c-0.9,9.9-0.6,19.9-0.2,29.8c0.2,5.3,0,10.6,0.3,15.9C349.1,127.1,348,128.3,347,129.6z"/>
	<path class="st6" d="M27.2,179.6c0-6.6,0.2-13.3-0.1-19.9c-0.2-4.5,1.9-5.9,5.8-6.1c4.1-0.3,7.9,1.1,11.8,1.9
		c9.9,2,19.8,4.1,29.8,5.9c3.1,0.6,3.8,1.6,2.9,4.7c-2.7,10.3-5.1,20.6-7.7,30.9c-0.5,2.1-1.4,4.1-2.3,6c-1.5,3.8-4.2,5-8.3,4.3
		c-9.3-1.6-18.7-2.9-28.2-2.5c-2.9,0.1-3.8-1-3.8-3.8C27.2,193.9,27.2,186.7,27.2,179.6z"/>
	<path class="st7" d="M193.2,32.6c8.7,0,17.3,0.1,26-0.1c2.9-0.1,4.2,0.5,4,3.8c-0.3,6.2-0.2,12.3,0,18.5c0.1,2.7-1.2,4-3.3,5.5
		c-7.3,5.5-16.3,5.4-24.4,7.9c-8.4,2.6-17.1,4.4-25.6,6.8c-3.5,1-5.2,0.7-5.4-3.5c-0.7-11.1-1.7-22.2-2.6-33.4
		c-0.3-3.9,1-5.8,5.3-5.7C175.9,32.8,184.5,32.6,193.2,32.6z"/>
	<path class="st8" d="M246.8,121.8c-0.2-2-0.4-4-0.4-5.9c-0.2-26.5-0.3-53-0.6-79.5c0-3.7,0.8-4.8,4.6-4.8c9.8,0.2,10,0,10.1,9.7
		c0.3,23.2,0.4,46.3,0.4,69.5c0,3.9,0.9,5.1,4.9,4.9c9.3-0.3,18.7-0.1,28-0.2c2.4,0,3.4,0.4,3.6,3.2c0.6,12.6,0.7,12.6-11.9,12.7
		c-12.5,0-25,0-37.5,0c-0.9-1.7-0.4-3.6-0.4-5.4c0-19.4,0-38.8,0-58.3c0-1.5,0.1-3.1-0.3-4.6c-0.4-0.6-1,0.4-0.5,0
		c0.2-0.2,0.3,0,0.5,0.2c0.6,0.9,0.3,1.9,0.3,2.8c0,17.3,0,34.5,0,51.8C247.5,119.3,247.9,120.7,246.8,121.8z"/>
	<path class="st7" d="M27.2,112.2c0-10,0.1-19.9-0.1-29.9c-0.1-3.4,0.9-4,4-2.9c2.6,1,4.7,2.5,6.5,4.4c9.6,10.1,19.2,20.3,29,30.2
		c2.4,2.5,2.7,3.8-0.4,6c-11.5,8.2-23.6,15.5-34.4,24.6c-1,0.9-2.3,1.6-3.6,1c-1.6-0.7-0.9-2.3-0.9-3.6
		C27.1,132.2,27.2,122.2,27.2,112.2z"/>
	<path class="st5" d="M331,143.6c1.5,1.4,0.7,3.1,0.7,4.7c0.2,27.3,0.3,54.5,0.5,81.8c0,5.9,0.5,11.5,8,12.9
		c1.1,0.2,1.7,0.9,1.5,2.1c-0.5,3.6-1.1,7.2-1.5,10.9c-0.2,1.8-1.2,1.9-2.8,1.9c-9.7,0.2-16.9-5.2-18.4-14.7
		c-2.1-12.5-0.9-25.2-0.9-37.8c1-3.2,0.4-6.6,0.4-9.8c0.3-16.4-0.2-32.8-0.6-49.1c3.9-1.7,8-2.2,12.1-2.9c1,4.2,0.4,8.6,0.4,12.8
		c0.1,13.4,0,26.8,0,39.5c0.5-0.8,0-2.5,0-4.1c0-14.4,0-28.9,0-43.3C330.5,146.9,330.1,145.2,331,143.6z"/>
	<path class="st4" d="M223.1,164.6c0,8.8,0,17.7,0,26.5c0,1.9,0.6,4.3-1.9,5.1c-2.3,0.8-4.7,1-6.7-0.6c-4.7-3.9-9.3-7.4-12.1-13.5
		c-4.8-10.2-10.8-19.9-16.5-29.6c-1.7-2.9-1.3-4.1,1.9-5.4c10.1-4.2,20.2-8.6,30.2-13c3.7-1.6,5.1-0.7,5.1,3.5
		C223.2,146.6,223.1,155.6,223.1,164.6z"/>
	<path class="st5" d="M430.9,255.5c-1.4-1-0.7-2.4-0.7-3.7c-0.2-21.6-0.2-43.3-0.5-64.9c0-3.3,1-4.6,4-5.6
		c9.8-3.4,19.6-4.9,29.9-2.4c2.8,0.7,4.2,1.7,3.2,4.7c-0.1,0.5-0.1,1-0.2,1.5c-0.6,3.1-0.2,7.1-2.1,9c-1.8,1.8-5.4-1.1-8.3-1.1
		c-2.2,0-4.3,0.1-6.5,0.2c-4.1,0.1-6.6,1.8-5.9,6.4c-0.9,14.3-0.4,28.6-0.2,42.9c0,1.3,0.3,2.6,0.3,4c0.2,8.9,0.2,8.8-8.6,8.7
		c-3.2,0-3.9-1.2-3.9-4.1c0.1-12.5,0-25.1,0-37.6c0,12.4,0,24.9,0,37.3C431.4,252.2,431.9,253.9,430.9,255.5z"/>
	<path class="st9" d="M134.1,220.3c0,1.4-1,2-1.9,2.7c-3.1,2.3-5.9,5.5-9.3,6.5c-3.7,1.1-5.6-3.7-8.7-5.4
		c-11.3-6.4-23.2-10.7-35.7-13.7c-1.5-0.4-3.9,0.2-4-2c-0.1-1.6,1.8-2.6,3.3-3.4c11-6.2,22.1-12.2,33.1-18.5
		c2.9-1.6,4.2-1.3,5.7,1.7c4.3,8.6,9,17.1,13.3,25.7C131,216.2,134,217.3,134.1,220.3z"/>
	<path class="st6" d="M122.7,32.7c9.3,0,18.6,0,28,0c0.9,0,2.1-0.4,2.6,0.8c0.5,1.2-0.5,1.8-1.2,2.5c-8.6,8.4-15.2,18.5-22.8,27.7
		c-2.4,2.9-3.8,3-6.6,0.4c-9.4-8.9-19.2-17.5-28.8-26.2c-1.3-1.1-2.8-2.5-2.5-4.1c0.5-2.2,2.8-1.1,4.3-1.2
		C104.7,32.6,113.7,32.6,122.7,32.7C122.7,32.7,122.7,32.7,122.7,32.7z"/>
	<path class="st6" d="M223,96.8c0,8.1,0,16.3,0,24.4c0,3.7-1.5,5.1-4.9,3.2c-8.8-4.8-18.1-8.4-27.2-12.4c-3.2-1.4-3.5-2.7-1.3-5.5
		c8.8-11,17.5-22.1,26.3-33.2c0.4-0.5,0.9-1,1.4-1.5c1.4-1.4,3-3.4,5-2.6c1.8,0.8,0.7,3.3,0.7,5C223,81.8,222.9,89.3,223,96.8
		C223,96.8,223,96.8,223,96.8z"/>
	<path class="st6" d="M142.1,215.8c4.2-11.3,8.4-22.6,12.5-33.9c0.8-2.3,2.2-2.3,4.3-1.6c12.4,4.3,24.8,8.5,37.2,12.8
		c3.1,1.1,6,2.8,8.6,5.7c-10.7,2.2-21.2,4.3-31.6,6.5C162.6,207.6,152.5,211.3,142.1,215.8z"/>
	<path class="st10" d="M278,329.5c1.3-7.8,2.8-15.6,3.6-23.5c0.5-5.1,3.9-3.3,6.5-3.6c3.8-0.4,2.7,2.5,2.7,4.4
		c0.1,10.6,0,21.3,0.1,31.9c0,2.3,0.1,4.1-3.2,4c-3.2-0.1-2.8-1.9-2.8-3.9c0-8,0-16-0.7-24.1c-1,6.8-2.1,13.6-3.1,20.5
		c-0.2,1.3-0.5,2.6-0.6,3.9c-0.1,2.2-1.4,2.5-3.4,2.6c-2.2,0.1-2.8-0.9-3.1-2.9c-1-7.5-2.2-15.1-4.2-22.6c0,6.7,0,13.4,0,20.2
		c0,1.3,0,2.7,0,4c0.1,1.8-1,2.2-2.5,2.2c-1.7,0-2.9-0.1-2.9-2.3c0-11.8,0.1-23.6,0-35.4c0-2.4,1.3-2.8,3.1-2.5
		c2.3,0.4,5.5-1.6,6,2.9c1.1,8.1,2.5,16.1,3.8,24.1C277.5,329.4,277.8,329.5,278,329.5z"/>
	<path class="st0" d="M48.4,81c12.7,1.5,25.4,3,38.1,4.4c3.4,0.4,4,1.9,2.6,4.6c-3.9,7.1-7.9,14.2-11.9,21.3
		c-1.2,2.2-2.7,2.2-4.3,0.4c-8.7-9.2-17.4-18.3-26.1-27.5c-0.6-0.7-1.6-1.4-1-2.5C46.3,80.7,47.4,80.8,48.4,81z"/>
	<path class="st0" d="M204.4,74c0.3,0.1,1,0.1,1.4,0.6c0.7,0.8-0.1,1.5-0.6,2.1c-7.9,10.3-15.8,20.6-23.7,30.9
		c-1.8,2.4-3.6,2.1-5.2-0.2c-4.2-6-8.4-12-12.5-18.1c-1.5-2.2-1.3-4.3,1.5-5.1c12.5-3.4,25.1-6.7,37.6-10
		C203.4,74.2,203.7,74.1,204.4,74z"/>
	<path class="st0" d="M72.9,123.6c2.2-0.2,2.1,1.2,2.1,2.6c-0.5,9.4,1.9,18.1,6.4,26.3c0.5,0.9,1.2,1.8,0.4,2.7
		c-0.7,0.9-1.8,0.5-2.8,0.3c-11.9-2.3-23.8-4.6-35.7-6.9c-1.2-0.2-2.4-0.4-2.7-1.7c-0.2-1.1,0.6-1.9,1.5-2.4
		c9.9-6.7,19.8-13.5,29.7-20.2C72,124,72.5,123.8,72.9,123.6z"/>
	<path class="st11" d="M192.2,185.6c-8.1-3.7-17.4-6.3-26.5-9.5c-9.9-3.5-9.9-3.5-3.1-11.2c3.6-4.1,7.3-8.2,10.9-12.3
		c2.3-2.6,4.1-2.3,5.8,0.7c5.3,9.6,10.7,19.1,16,28.7c0.6,1,1.4,2.1,0.5,3.2C195,186,193.9,185.9,192.2,185.6z"/>
	<path class="st0" d="M93.1,46.1c0.4,0.3,1,0.7,1.5,1.1C103,55.2,111.6,63,120,71.1c3.5,3.3,3.2,4.3-1.5,6c-6.2,2.3-12.8,3.7-18.6,7
		c-4,2.2-5.5,0.1-5.8-3.6c-0.7-8.1-1.2-16.2-1.9-24.3c-0.2-2.6-0.4-5.3-0.7-7.9C91.4,47.2,91.5,46.3,93.1,46.1z"/>
	<path class="st0" d="M157.9,76.1c0.3,10.2-0.3,10.6-9.5,6.1c-4.6-2.2-9.4-3.3-14.3-4.4c-3-0.7-3.5-1.8-1.7-4.4
		c6.4-9.1,12.8-18.3,19.2-27.4c0.8-1.2,1.6-3,3.4-2.4c1.5,0.5,0.8,2.3,0.9,3.6C156.6,56.9,157.3,66.5,157.9,76.1z"/>
	<path class="st0" d="M78.4,197.4c-1.8-0.2-2.1-1.2-1.7-2.8c2.9-10.6,5.7-21.2,8.5-31.7c0.6-2.1,1.8-2.1,3.2-0.6
		c6,6.5,13.3,11,21.6,13.8c2.1,0.7,2.8,2,0.5,3.3c-10.2,5.8-20.5,11.6-30.8,17.4C79.3,197.1,78.8,197.2,78.4,197.4z"/>
	<path class="st10" d="M406.7,326.2c0-6.7,0-13.4,0-20.1c0-1.7-0.7-3.7,2.4-3.8c3.3-0.1,2.8,2,2.8,3.9c0,11,0,21.9,0,32.9
		c0,1.5,0.8,3.5-2,3.5c-2.2,0-4.1,0.2-4.9-2.8c-1.8-7.2-4-14.3-6.9-21.4c0,6.8,0,13.6,0,20.4c0,2,0.3,3.9-2.9,3.9
		c-3.1-0.1-2.4-2.1-2.4-3.7c0-11,0-21.9,0-32.9c0-1.7-0.7-3.8,2.4-3.7c2.4,0.1,4.3-0.3,5.1,3.1c1.6,7,3.8,13.9,5.7,20.9
		C406.2,326.3,406.5,326.2,406.7,326.2z"/>
	<path class="st12" d="M323.1,318.5c0,6.8,0,13.6,0,20.4c0,1.9,0.6,4-2.8,3.9c-3.1-0.1-2.4-2-2.4-3.7c0-11,0-22,0-33
		c0-1.4-0.9-3.7,2-3.6c2.1,0.1,4.6-0.9,5.4,2.7c1.6,7.1,3.8,14.1,6.5,21c0-6.6,0-13.3,0-19.9c0-2-0.4-4,2.9-3.9
		c3.1,0.1,2.4,2.1,2.4,3.8c0,11,0,22,0,33c0,1.4,0.9,3.6-2,3.6c-2.2,0-4.2,0.4-5-2.7c-1.8-7.2-4-14.4-6.1-21.5
		C323.7,318.4,323.4,318.4,323.1,318.5z"/>
	<path class="st13" d="M132.1,322.9c-0.1,4.5,0.2,9-0.9,13.4c-1.2,4.7-4.3,6.9-9,6.9c-4.6-0.1-7.8-2.3-8.5-6.9
		c-1.4-9.2-1.5-18.5,0.1-27.7c0.8-4.6,4.1-6.6,8.7-6.6c4.5,0,7.5,2.1,8.7,6.6C132.3,313.3,131.9,318.1,132.1,322.9z"/>
	<path class="st13" d="M76.8,322.5c0-5.7,0.1-11.3,0-17c-0.1-2.3,0.5-3.5,3-3.1c0.3,0,0.7,0,1,0C93,302.2,97,309,90.9,319.9
		c-0.9,1.6-0.2,1.8,0.6,2.7c3.5,4.3,3.3,9.3,2,14.2c-1.4,5-11.2,8.3-15.7,5.7c-1.3-0.8-0.9-2-0.9-3.1
		C76.8,333.8,76.8,328.1,76.8,322.5z"/>
	<path class="st11" d="M211.6,129.8c-10.6,4.8-21.4,8.8-32.4,12.7c-2.6,0.9-3.9-0.4-3-3.1c2.1-6.7,3.3-13.5,1.7-20.6
		c-0.6-2.4,0.8-3.8,3.1-2.9c10.3,4,20.6,8.3,30.9,12.4C211.7,128.7,211.7,129.2,211.6,129.8z"/>
	<path class="st11" d="M127.5,178.6c5.9,0.1,11.6-1.3,17-3.3c3.5-1.3,5.1-0.4,3.9,3.2c-3.3,10.1-6.9,20-10.4,30.1
		c-0.3,0.8-0.8,1.5-1.8,1.4c-1.3-0.2-1.8-1.4-2.3-2.4c-3.3-7.1-6.6-14.1-10-21.2c-0.6-1.2-1-2.5-1.7-3.6c-2.2-3.1-1.7-4.5,2.3-4.2
		C125.5,178.7,126.5,178.6,127.5,178.6z"/>
	<path class="st13" d="M450.4,302.5c3.5-0.9,4.5,0.8,4.9,4.1c1.3,10.4,3.1,20.7,4.5,31.1c0.2,1.5,2.7,4.3-1.3,5
		c-3.4,0.6-4.7-0.9-4.8-4.3c0-1.8,0.5-4.4-2.1-4.9c-2.7-0.6-5.5-0.6-5.5,3.5c0,1.3-0.3,2.6-0.5,4c-0.4,2.6-2.5,1.7-3.9,1.7
		c-2.3,0-1.4-1.6-1.2-2.9c1.7-11.2,3.6-22.3,5.2-33.5C446.1,303,447.2,301.7,450.4,302.5z"/>
	<path class="st13" d="M53,302.4c2.8-0.6,4.2,0.4,4.6,3.7c1.5,11.2,3.3,22.4,5,33.6c0.2,1.2,1,2.9-1.2,2.9c-1.6,0-3.9,1.2-4.8-1.3
		c-0.4-1.1-0.4-2.3-0.5-3.4c-0.3-2.3,0.1-4.5-3.6-4.6c-3.9-0.1-3.7,2.3-4.1,4.7c-0.1,0.8-0.3,1.6-0.3,2.5c0,3-2.2,2.3-3.9,2.3
		c-2.4,0-1.4-1.7-1.2-2.9c1.7-11.5,3.6-23,5.2-34.6C48.6,301.9,50.6,302.3,53,302.4z"/>
	<path class="st14" d="M222,302.5c1-0.1,2-0.2,3-0.2c11.6-0.1,17.2,9.1,11.3,19.4c-1.9,3.2-1.7,5.6-0.7,8.7c0.9,2.9,1.8,5.7,2.3,8.7
		c0.2,1,2.4,3.1-0.5,3.4c-1.9,0.2-4.8,1.6-5.6-2.1c-1-4.6-2.2-9.2-3.9-13.7c-2.6,5.1,0,10.6-2,15.6c-1.1-3.4-0.1-6.9-0.5-10
		c0.1,2.1,0,4.5,0,7c0,1.5-0.4,2.7-2.2,2.5c-1.6-0.1-1.7-1.2-1.8-2.5c0-5.3-0.1-10.6,0-16C221.7,316.4,220.9,309.5,222,302.5z"/>
	<path class="st13" d="M192.6,302.5c3.1-0.8,4,0.6,4.4,3.6c1.4,10.9,3.3,21.7,4.8,32.5c0.2,1.3,2.1,3.8-1.5,4.1
		c-2.5,0.2-4.7,0.2-4.6-3.3c0.1-1.3-0.5-2.6-0.5-3.9c-0.1-2.3-1.7-2.1-3.1-2c-1.5,0.1-3.5-0.6-3.9,1.9c-0.2,1.6-0.5,3.3-0.6,4.9
		c-0.2,2.7-2.1,2.5-3.9,2.4c-2.7-0.2-1.5-2.2-1.3-3.4c1.6-10.8,3.5-21.7,5-32.5C187.8,303.3,189,301.5,192.6,302.5z"/>
	<path class="st14" d="M435.8,331.7c0,1.2,0.3,2.4-0.1,3.5c-0.9,2.5,2.5,6.6-2.8,7.6c-6.4,1.2-11-0.5-13-5.5c-0.5-1.2-0.8-2.5-1-3.8
		c-1-7.1-1-14.3,0.1-21.4c1.2-7.7,5.7-10.8,13.4-9.9c2.6,0.3,2.7,1.6,2.8,3.6c0.1,2.5-1.3,2.1-2.9,1.9c-4.6-0.7-7.1,1.7-7.2,6
		c-0.2,6.1-0.1,12.3,0,18.4c0,1.7,0.5,3.3,1.7,4.6c1,1,2.3,1.6,3.4,0.2c1.1-1.3,0.1-9.6-1.4-10.3c-2.4-1-1.8-3-1.3-4.2
		c1.1-3.1,4-0.9,6.1-1.4c1.6-0.4,2.5,0.5,2.3,2.2c-0.1,1.5,0,3,0,4.5C435.8,329,435.8,330.4,435.8,331.7z"/>
	<path class="st12" d="M482.1,331.7c0,1.3,0.3,2.7-0.1,4c-0.6,2.3,2.2,5.8-2.3,7c-5.2,1.3-10.5,0-12.5-3.7c-1-1.8-1.8-4-2-6.1
		c-0.6-7.3-1.1-14.7,0.4-21.9c1.5-7.1,6.7-10.1,13.8-8.8c2.5,0.5,2.2,2,2.3,3.6c0.1,2.5-1.4,2.1-3,1.8c-4.7-0.8-6.9,1.6-7.4,6
		c-0.6,6.3-0.6,12.6,0.1,18.9c0.2,1.5,0.4,3,1.6,4.1c1,1,2.3,1.5,3.5,0.4c1.1-1,0.2-10-1.2-10.5c-2.7-1-1.9-3.4-1.4-4.5
		c1.4-2.6,4.2-0.7,6.3-1.1c2.1-0.4,1.8,1.4,1.8,2.7C482.1,326.4,482.1,329,482.1,331.7z"/>
	<path class="st12" d="M373,322.9c0-5.8,0.1-11.6,0-17.4c-0.1-2.3,0.6-3.3,3.1-3.1c2.6,0.2,5.3,0.2,8,0c2.3-0.1,2.7,0.9,2.8,2.9
		c0.1,2.4-1,2.7-3,2.7c-2,0-5.5-1.1-4.5,2.9c0.7,2.9-3.5,8.5,3.9,8.2c2.3-0.1,2.2,1.4,2.2,3c0,1.5-0.2,2.8-2.1,2.5
		c-4.5-0.7-4.3,2.2-4.1,5.1c0.1,1.2,0.1,2.3,0,3.5c-0.4,3,0.6,4.3,3.8,4c2.2-0.3,4.2-0.4,4.1,3.1c-0.2,3.5-2.5,2.4-4.2,2.4
		c-9.7,0.2-9.7,0.2-9.7-9.8C373,329.6,373,326.2,373,322.9z"/>
	<path class="st13" d="M298.1,322.1c0-5.5,0.1-11-0.1-16.5c-0.1-2.7,0.9-3.5,3.4-3.3c2.5,0.2,5,0.2,7.5,0c2.1-0.1,3,0.5,3,2.8
		c0,2.2-0.6,2.9-2.8,2.9c-2,0-5.6-1.3-4.6,2.8c0.7,2.9-3.5,8.4,3.8,8.3c2.3,0,2.2,1.4,2.2,3c0,1.5-0.1,2.8-2.1,2.5
		c-3.9-0.6-4.4,1.6-4.1,4.7c0.1,1.3,0.2,2.7,0,4c-0.5,3.1,0.9,4.2,3.9,3.9c1.9-0.2,3.9-0.6,3.9,2.7c0,3.3-2,2.8-3.9,2.8
		c-10.1,0.2-10.1,0.2-10.1-10.1C298.1,329.1,298.1,325.6,298.1,322.1z"/>
	<path class="st15" d="M244.7,322.2c0-5.5,0.1-11-0.1-16.5c-0.1-2.6,0.8-3.6,3.4-3.3c2.5,0.2,5,0.2,7.5,0c2.3-0.2,2.7,0.9,2.8,2.9
		c0.1,2.3-0.9,2.8-3,2.7c-2.3-0.2-5.4-0.6-4.3,3.2c0.8,2.8-3.5,8.2,3.6,8c2.2-0.1,2.4,1.1,2.3,2.8c-0.1,1.4,0.1,3-1.9,2.7
		c-4.5-0.7-4.4,2.1-4.2,5.1c0.1,1,0.1,2,0,3c-0.4,3.3,0.6,5.1,4.3,4.5c2-0.3,3.5-0.1,3.5,2.7c0,2.7-1.3,2.8-3.4,2.9
		c-10.5,0.4-10.5,0.4-10.5-10.1C244.7,329.1,244.7,325.6,244.7,322.2z"/>
	<path class="st12" d="M488.6,322.3c0-5.3,0.2-10.6-0.1-15.9c-0.2-3.4,1.1-4.3,4.2-4c1.8,0.2,3.7,0,5.5,0c1.8,0,4-0.8,4.1,2.6
		c0.1,3.2-1.6,3.1-3.7,2.9c-2.7-0.3-4.5,0.6-3.6,3.5c0.8,2.7-3,7.6,3.4,7.7c2.3,0,2.8,0.9,2.7,3c0,1.9-0.7,2.9-2.6,2.6
		c-3.5-0.6-3.8,1.5-3.6,4.1c0.1,1.5,0.2,3,0,4.5c-0.4,3,0.6,4.3,3.8,4c1.9-0.2,4-0.6,4,2.7c0,3.2-1.9,2.8-3.9,2.8
		c-10.1,0.2-10.1,0.2-10.1-9.9C488.6,329.3,488.6,325.8,488.6,322.3z"/>
	<path class="st8" d="M347.3,325.2c0-3.5,0.1-7,0-10.5c-0.1-3,1.6-7-4.2-6.8c-1.7,0-0.9-2.2-1-3.4c-0.2-1.4,0.4-2.2,1.9-2.2
		c4.3,0,8.7,0,13,0c2,0,2,1.3,2,2.7c0,1.5,0.3,3.3-2,3.1c-3.3-0.3-3.3,1.7-3.3,4c0.1,8.8,0,17.6,0,26.5c0,2.3,0.2,4.1-3.2,4.1
		c-3.4,0-3.3-1.8-3.2-4.1C347.3,334.2,347.3,329.7,347.3,325.2z"/>
	<path class="st13" d="M446,92.2c0-11,0.1-22-0.1-32.9c-0.1-3.3,0.6-4.6,4.3-4.6c9.8,0.1,9.8-0.1,9.9,9.9
		c0.2,20.1,0.3,40.3,0.6,60.4c0.1,4-0.7,5.5-5.1,5.4c-9.1-0.3-9.1,0-9.1-9.2c0-9.6,0-19.3,0-28.9C446.3,92.2,446.2,92.2,446,92.2z"
		/>
	<path class="st14" d="M146.1,322.5c0.3-4,0.4-8,1.1-11.9c1.1-6.1,4.7-8.7,10.4-8.4c2,0.1,3,0.6,3.1,2.8c0,2.1-0.4,3-2.8,2.7
		c-2.9-0.3-4.2,1.9-4.5,4.3c-0.9,7-0.9,14,0,20.9c0.3,2.5,1.6,4.5,4.6,4.3c2-0.2,2.7,0.3,2.7,2.4c0,2-0.5,3-2.7,3.3
		c-5.5,0.7-9.6-2.1-10.8-8C146.4,330.9,146.2,326.7,146.1,322.5z"/>
	<path class="st16" d="M403.1,157.2c-0.1-6.5,3.6-11.1,8.9-11c5,0.1,8.7,4.5,8.8,10.7c0.1,6.2-3.9,11.2-9,11.1
		C406.9,167.9,403.1,163.3,403.1,157.2z"/>
	<path class="st3" d="M461.3,32.7c0,6.3-3.5,10.8-8.6,10.8c-5,0-8.7-4.5-8.7-10.7c0-6.2,3.6-10.8,8.6-10.8
		C457.6,22,461.3,26.4,461.3,32.7z"/>
	<path class="st8" d="M509.9,302.6c2.8-0.1,5.6-0.1,8.4-0.2c2.1-0.1,3.8-0.2,3.8,2.9c0,2.8-1.5,3-3.5,2.8c-2.9-0.3-4.7,0.7-3.9,3.8
		c0.7,2.5-2.9,7.3,3.3,7.3c2.3,0,2.8,0.9,2.7,3c0,1.9-0.7,2.9-2.6,2.6c-3.5-0.6-3.7,1.6-3.6,4.2c0.2,2.8,0.2,5.6,0.2,8.4
		c1.4,1.5,3.1,0.5,4.7,0.8c1.2,0.2,1.7,0.8,1.7,2c0,1.2-0.6,1.9-1.8,1.9c-2.7,0.1-5.3,0-8,0c-1.8,0-2.2-1.1-2.2-2.6
		C509.7,327.1,508.8,314.8,509.9,302.6z"/>
	<path class="st15" d="M26.9,322.1c0-5.5,0.1-11-0.1-16.5c-0.1-2.7,1-3.3,3.5-3.3c2.6,0,2.9,1.2,2.9,3.3c-0.1,9.1,0,18.3-0.1,27.4
		c0,2.5,0.2,4.3,3.4,3.8c2.2-0.3,2.8,0.9,2.8,2.9c0,2.2-0.7,2.7-2.9,2.9c-9.5,0.6-9.5,0.7-9.5-8.7C26.9,330,26.9,326.1,26.9,322.1z"
		/>
	<path class="st17" d="M166.2,322.3c0-5.7,0.1-11.3,0-17c-0.1-2.5,1-3,3.3-3.1c2.4,0,3.1,0.8,3.1,3.1c-0.1,9.3,0,18.7-0.1,28
		c0,2.4,0.4,4,3.2,3.5c2.6-0.4,3,0.8,3,3.1c0,2.4-1.1,2.6-3.1,2.7c-9.4,0.4-9.4,0.4-9.4-8.9C166.2,330,166.2,326.2,166.2,322.3z"/>
	<path class="st12" d="M106.3,323c0,5.5-0.1,10.9,0.1,16.4c0.1,2.7-0.8,3.4-3.4,3.3c-2.5,0-3-1-3-3.3c0.1-11.3,0.1-22.5,0-33.8
		c0-2.7,0.8-3.3,3.4-3.4c2.6,0,3,1.1,2.9,3.3C106.3,311.4,106.3,317.2,106.3,323z"/>
	<path class="st12" d="M213.5,322.9c0,5.5-0.1,11,0,16.5c0,2.2-0.3,3.3-2.9,3.3c-2.6,0-3.5-0.8-3.4-3.4c0.1-11.3,0.1-22.6,0-34
		c0-2.5,0.9-3,3.2-3.1c2.4,0,3.2,0.7,3.1,3.1C213.4,311.3,213.5,317.1,213.5,322.9z"/>
	<path class="st18" d="M417.9,179.7c2.2,0.6,1.3,2.4,1.3,3.7c0.3,22.7,0.3,45.5,0.7,68.2c0.1,3.5-0.9,4.4-4.3,4.4
		c-9.9,0-9.9,0.1-10-9.6c0-1.5,0.1-3,0.2-4.5c-0.8-10.3-0.2-20.5-0.3-30.8c-0.1-9.1,0.1-18.3-0.1-27.4c0-2.7,0.7-3.9,3.6-3.8
		C412,180.1,415,180.4,417.9,179.7z"/>
	<path class="st19" d="M45.1,212.6c-3.8,2-7.8,0.9-11.7,0.8c-3.7,0-4.4,1.5-4.3,4.8c0.1,10.5,0.2,20.9,0,31.4c-0.1,4,1.1,5.1,5.1,5
		c21.2-0.2,42.5-0.1,63.7-0.1c1.8,0,3.7-0.6,5.2,0.8c-3.8,0.9-7.6,0.3-11.4,0.3c-20.1,0.1-40.2,0-60.3,0.1c-3.2,0-4.3-0.7-4.2-4.1
		c0.2-11.8,0.2-23.6,0-35.4c-0.1-3.5,1.1-4.8,4.5-4.6C36.1,211.9,40.6,211.5,45.1,212.6z"/>
	<path class="st20" d="M430.9,255.5c0-14.9,0-29.8,0-44.8c0.3,0,0.7,0,1,0c0,2.8,0,5.6,0,8.4c0,10.3,0.2,20.6-0.1,30.9
		c-0.2,4.7,2.3,4.6,5.5,4.5c3.1,0,5.7,0.3,5.6-4.4c-0.3-15.1-0.1-30.2-0.1-45.3c0-1.8-0.6-3.7,0.9-5.2c0.2,17.6,0.4,35.2,0.7,52.8
		c0,2.5-0.5,3.7-3.3,3.5C437.9,255.5,434.4,255.6,430.9,255.5z"/>
	<path class="st21" d="M112.2,252.5c1.5,2.5,4,1.9,6.3,1.9c34.8,0,69.6,0,104.5,0c-0.9,2.3-2.9,1.1-4.3,1.1
		c-34.4,0.1-68.9,0.1-103.3,0C113.8,255.6,109.4,257.4,112.2,252.5z"/>
	<path class="st22" d="M394.1,254.5c-0.7-0.3-2.2-0.6-2.1-0.6c4-2.7,1.8-6.7,1.9-10c0.3-12.1,0.1-24.2,0.1-36.3
		c0-1.7-0.7-3.7,0.9-5.2c1.2,16.7,0.5,33.4,0.9,50.2C395.8,253.9,395.3,254.5,394.1,254.5z"/>
	<path class="st23" d="M317.9,146.5c0.6,0.2,1.4,0.2,1.4,1.1c-0.1,18.4-0.2,36.8-0.3,55.2c0,1,0,2-0.9,2.7
		c-0.2-19.2-0.5-38.5-0.7-57.7C317.4,147.3,317.7,146.9,317.9,146.5z"/>
	<path class="st24" d="M417.9,179.7c-2.3,1.6-4.9,0.9-7.2,0.7c-3.7-0.2-4.9,1-4.8,4.8c0.2,16.9,0.1,33.8,0.1,50.8c0,2-0.1,4-0.2,6
		c-1-8.9-0.4-17.9-0.6-26.8c-0.2-10.6-0.1-21.2-0.3-31.9c0-2.7,0.5-4,3.5-3.7C411.6,179.8,414.8,179.6,417.9,179.7z"/>
	<path class="st25" d="M347,129.6c0.2-2.4,1.1-4.6,1-7.1c-0.2-12.6-0.1-25.1-0.1-37.7c0-1.7-0.6-3.7,0.9-5.2
		c0.2,15.8,0.5,31.5,0.8,47.3C349.7,128.8,349,129.7,347,129.6z"/>
	<path class="st26" d="M246.8,121.8c0.1-18,0.2-35.9,0.2-53.9c0-1.8,0-3.5,0.9-5.2c0,22.9,0,45.9,0,68.8
		C245.1,128.5,247.3,125,246.8,121.8z"/>
	<path class="st27" d="M509.9,302.6c0,11.6,0,23.1,0.1,34.7c0,1.5-0.6,3.8,1.7,4c2.9,0.3,6.1,1.1,8.7-0.6c1.1-0.7,0-2-1.4-2.2
		c-1.4-0.2-3.1,0.5-4-1.3c1.5,0,3,0.1,4.5,0c2.3-0.2,2.8,0.8,2.8,2.9c-0.1,1.9-0.6,2.4-2.6,2.6c-11.1,0.9-11.1,1-11.1-10
		c0-8.6-0.1-17.3,0.1-25.9C508.6,305.3,507.4,303.3,509.9,302.6z"/>
	<path class="st28" d="M222,302.5c0,11.6,0,23.2,0.1,34.7c0,1.3-0.7,3.6,1.3,3.7c2.5,0.1,1.6-2.4,1.6-3.8c0.1-3.2,0-6.4,1-9.7
		c0,4.9,0,9.9,0,14.8c-4,1.2-5.5,0.1-5.4-4.4c0.3-10.4,0.1-20.8,0.2-31.2C220.8,305.3,219.7,303.4,222,302.5z"/>
	<path class="st29" d="M331,143.6c0,17.6,0,35.2,0,52.8c-0.3,0-0.6,0-1,0c0-17.6,0-35.2,0-52.8C330.3,143.6,330.6,143.6,331,143.6z"
		/>
	<path class="st30" d="M493.2,300.1c0.7-5,3.9-5.2,8-4.5C499.8,299.2,497.8,301.5,493.2,300.1z"/>
	<path class="st31" d="M493.9,209.6c-2,0-4,0-6,0c-7.5,0-7.5,0-5.5-6.7c2.3-7.5,7.8-11.9,13.9-11.1c6.1,0.9,11.2,7.9,11.2,15.3
		c0,2.2-1,2.4-2.7,2.4C501.3,209.5,497.6,209.5,493.9,209.6C493.9,209.6,493.9,209.6,493.9,209.6z"/>
	<path class="st32" d="M494.7,84.7c-2.2,0-4.3,0-6.5,0c-7.2,0-7.2,0-5.2-6.6c2.3-7.5,7.7-11.6,14.1-10.7c5.8,0.8,10.8,7.9,10.8,15
		c0,2.3-1.2,2.3-2.8,2.3C501.6,84.6,498.1,84.7,494.7,84.7C494.7,84.7,494.7,84.7,494.7,84.7z"/>
	<path class="st32" d="M381.8,233.1c0.1,11.1,0.1,11.1-11,10.6c-7-0.3-10.4-3.4-10.8-9.8c-0.4-6.6,3-10.6,9.8-11.5
		C380.6,220.9,381.8,222,381.8,233.1z"/>
	<path class="st32" d="M335.9,108.4c0.1,10.7,0.1,10.7-10.8,10.3c-6.9-0.2-10.3-3.3-10.7-9.8c-0.4-6.2,2.9-10.1,9.5-11.2
		C334.1,96,335.8,97.6,335.9,108.4z"/>
	<path class="st33" d="M125.1,322.7c0,3.7,0.1,7.3,0,11c-0.1,1.7-0.5,3.6-2.5,3.8c-2.2,0.2-2.7-1.7-2.9-3.4
		c-0.7-7.8-0.8-15.6,0.1-23.4c0.2-1.6,0.7-3.1,2.6-3.1c1.8,0,2.5,1.7,2.6,3.1C125.1,314.7,125,318.7,125.1,322.7
		C125,322.7,125.1,322.7,125.1,322.7z"/>
	<path class="st34" d="M88,331.6c-0.1,0.7-0.2,2.1-0.5,3.3c-0.4,1.6-1.6,2.6-3.3,2.4c-2-0.2-1.4-1.9-1.4-3.1c-0.1-1.8-0.2-3.6,0-5.4
		c0.1-1.4-1-3.8,1.4-4c2.4-0.3,3.3,1.7,3.6,3.8C88,329.4,88,330.2,88,331.6z"/>
	<path class="st35" d="M82.6,313.3c0.9-1.8-1.3-5.1,1.8-5.3c3.1-0.2,2.8,3,2.8,5.2c0,2.2,0.4,5.6-2.5,5.5
		C81.2,318.6,83.7,315.1,82.6,313.3z"/>
	<path class="st36" d="M450.6,313.7c0.6,4.3,1.2,8.6,1.7,12.9c0.2,1.7-1.2,1.7-2.3,1.7c-1.2,0-2.6,0-2.4-1.7
		c0.5-4.3,1.2-8.6,1.8-12.9C449.8,313.7,450.2,313.7,450.6,313.7z"/>
	<path class="st37" d="M52.9,312.1c0.6,4.5,1.1,9,1.8,13.5c0.3,2.1-0.3,2.6-2.3,2.7c-2,0-2.7-0.7-2.4-2.7c0.7-4.5,1.4-9,2-13.5
		C52.3,312.1,52.6,312.1,52.9,312.1z"/>
	<path class="st34" d="M226.6,314.7c0-1.2-0.1-2,0-2.8c0.3-1.4-1.2-3.7,1.4-4c2.5-0.3,3.2,1.8,3.6,3.8c0.1,0.6,0.2,1.3,0.1,2
		c-0.2,2.8,0.6,7.1-3.3,7C224.3,320.6,227.9,316.4,226.6,314.7z"/>
	<path class="st38" d="M192.3,312.2c0.6,4.8,1.3,9.6,1.7,14.4c0.2,2-1.6,1.7-2.8,1.7c-1.4,0-2.2-0.4-1.9-2.1
		c0.7-4.6,1.4-9.3,2.1-13.9C191.7,312.2,192,312.2,192.3,312.2z"/>
	<path class="st5" d="M447.9,92.6c0-10.7,0.1-21.3-0.1-32c-0.1-3.4,1.2-4.3,4.4-4.2c2.7,0.1,4.7,0.1,4.7,3.8
		c0.3,20.9,3,41.7,1.9,62.7c-0.1,1.8,1.1,4.6-1.5,5.2c-2.7,0.6-5.7,0.4-8.4-0.1c-1.7-0.3-1.1-2.6-1.1-4
		C447.9,113.6,447.9,103.1,447.9,92.6z"/>
	<path class="st24" d="M417.9,218.3c0,10.6-0.2,21.3,0.1,31.9c0.1,4.4-2.2,4.4-5.3,4.3c-2.9-0.1-5.9,0.9-5.9-4.1
		c0.2-21.4,0.2-42.9,0-64.3c-0.1-4.6,2.3-4.6,5.5-4.5c3.1,0,5.8-0.4,5.7,4.4C417.7,196.7,417.9,207.5,417.9,218.3z"/>
</g>
</svg>
